<svg width="20" height="20" viewBox="0 0 20 20" fill="none" xmlns="http://www.w3.org/2000/svg">
<path d="M16.1875 3.5H14.5V1.67188C14.5 1.46094 14.2891 1.25 14.0781 1.25H13.7969C13.5508 1.25 13.375 1.46094 13.375 1.67188V3.5H6.625V1.67188C6.625 1.46094 6.41406 1.25 6.20312 1.25H5.92188C5.67578 1.25 5.5 1.46094 5.5 1.67188V3.5H3.8125C2.86328 3.5 2.125 4.27344 2.125 5.1875V17.5625C2.125 18.5117 2.86328 19.25 3.8125 19.25H16.1875C17.1016 19.25 17.875 18.5117 17.875 17.5625V5.1875C17.875 4.27344 17.1016 3.5 16.1875 3.5ZM3.8125 4.625H16.1875C16.4688 4.625 16.75 4.90625 16.75 5.1875V6.875H3.25V5.1875C3.25 4.90625 3.49609 4.625 3.8125 4.625ZM16.1875 18.125H3.8125C3.49609 18.125 3.25 17.8789 3.25 17.5625V8H16.75V17.5625C16.75 17.8789 16.4688 18.125 16.1875 18.125ZM7.32812 12.5C7.53906 12.5 7.75 12.3242 7.75 12.0781V10.6719C7.75 10.4609 7.53906 10.25 7.32812 10.25H5.92188C5.67578 10.25 5.5 10.4609 5.5 10.6719V12.0781C5.5 12.3242 5.67578 12.5 5.92188 12.5H7.32812ZM10.7031 12.5C10.9141 12.5 11.125 12.3242 11.125 12.0781V10.6719C11.125 10.4609 10.9141 10.25 10.7031 10.25H9.29688C9.05078 10.25 8.875 10.4609 8.875 10.6719V12.0781C8.875 12.3242 9.05078 12.5 9.29688 12.5H10.7031ZM14.0781 12.5C14.2891 12.5 14.5 12.3242 14.5 12.0781V10.6719C14.5 10.4609 14.2891 10.25 14.0781 10.25H12.6719C12.4258 10.25 12.25 10.4609 12.25 10.6719V12.0781C12.25 12.3242 12.4258 12.5 12.6719 12.5H14.0781ZM10.7031 15.875C10.9141 15.875 11.125 15.6992 11.125 15.4531V14.0469C11.125 13.8359 10.9141 13.625 10.7031 13.625H9.29688C9.05078 13.625 8.875 13.8359 8.875 14.0469V15.4531C8.875 15.6992 9.05078 15.875 9.29688 15.875H10.7031ZM7.32812 15.875C7.53906 15.875 7.75 15.6992 7.75 15.4531V14.0469C7.75 13.8359 7.53906 13.625 7.32812 13.625H5.92188C5.67578 13.625 5.5 13.8359 5.5 14.0469V15.4531C5.5 15.6992 5.67578 15.875 5.92188 15.875H7.32812ZM14.0781 15.875C14.2891 15.875 14.5 15.6992 14.5 15.4531V14.0469C14.5 13.8359 14.2891 13.625 14.0781 13.625H12.6719C12.4258 13.625 12.25 13.8359 12.25 14.0469V15.4531C12.25 15.6992 12.4258 15.875 12.6719 15.875H14.0781Z" fill="#7F8794"/>
</svg>
