<svg width="20" height="20" viewBox="0 0 20 20" fill="none" xmlns="http://www.w3.org/2000/svg">
<path d="M13.6094 6.86719C13.3516 6.70312 13 6.79688 12.8359 7.05469C12.6719 7.3125 12.7422 7.66406 13 7.82812C13.9375 8.41406 14.5 9.42188 14.5 10.5C14.5 11.6016 13.9375 12.6094 13 13.1953C12.7422 13.3594 12.6719 13.7109 12.8359 13.9688C12.9766 14.2266 13.3281 14.3203 13.6094 14.1562C14.8516 13.3594 15.625 12 15.625 10.5C15.625 9.02344 14.8516 7.66406 13.6094 6.86719ZM12.2969 8.71875C12.0156 8.55469 11.6875 8.64844 11.5234 8.92969C11.3828 9.21094 11.4766 9.53906 11.7578 9.70312C12.0391 9.86719 12.25 10.1719 12.25 10.5C12.25 10.8516 12.0391 11.1562 11.7578 11.3203C11.4766 11.4844 11.3828 11.8125 11.5234 12.0938C11.6875 12.375 12.0156 12.4688 12.2969 12.3047C12.9531 11.9531 13.375 11.25 13.375 10.5C13.375 9.77344 12.9531 9.07031 12.2969 8.71875ZM9.78906 6C9.64844 6 9.50781 6.07031 9.41406 6.1875L7.32812 8.25H4.9375C4.60938 8.25 4.375 8.50781 4.375 8.8125V12.1875C4.375 12.5156 4.60938 12.75 4.9375 12.75H7.32812L9.41406 14.8359C9.50781 14.9531 9.64844 15 9.78906 15C10.0938 15 10.375 14.7891 10.375 14.4375V6.58594C10.375 6.23438 10.0938 6 9.78906 6ZM9.25 13.1016L7.77344 11.625H5.5V9.375H7.77344L9.25 7.92188V13.1016Z" fill="#242D33"/>
</svg>
