<svg width="14" height="11" viewBox="0 0 14 11" fill="none" xmlns="http://www.w3.org/2000/svg">
<path d="M13.1328 9.44922L1.45312 0.328125C1.39453 0.289062 1.31641 0.25 1.25781 0.25C1.16016 0.25 1.0625 0.308594 1.00391 0.367188L0.808594 0.621094C0.769531 0.660156 0.730469 0.757812 0.730469 0.816406C0.730469 0.894531 0.789062 1.01172 0.867188 1.05078L12.5469 10.1914C12.5859 10.2305 12.6641 10.25 12.7422 10.25C12.8203 10.25 12.918 10.2109 12.9766 10.1328L13.1719 9.89844C13.2109 9.85938 13.25 9.76172 13.25 9.70312C13.25 9.625 13.1914 9.50781 13.1328 9.44922ZM6.53125 3.12109L9.16797 5.17188C9.12891 4 8.17188 3.0625 7 3.0625C6.86328 3.08203 6.66797 3.10156 6.53125 3.12109ZM7.44922 7.39844L4.8125 5.34766C4.85156 6.51953 5.80859 7.4375 7 7.4375C7.11719 7.4375 7.3125 7.41797 7.44922 7.39844ZM7 2.4375C8.91406 2.4375 10.6914 3.51172 11.6289 5.25C11.4336 5.62109 11.0625 6.14844 10.7695 6.44141L11.5117 7.00781C11.8633 6.63672 12.3125 5.99219 12.5469 5.54297C12.5859 5.46484 12.625 5.34766 12.625 5.25C12.625 5.17188 12.5859 5.05469 12.5469 4.97656C11.4922 2.90625 9.38281 1.5 7 1.5C6.27734 1.5 5.59375 1.63672 4.94922 1.87109L5.84766 2.59375C6.21875 2.49609 6.60938 2.4375 7 2.4375ZM7 8.0625C5.06641 8.0625 3.28906 6.98828 2.35156 5.25C2.54688 4.89844 2.91797 4.37109 3.21094 4.07812L2.46875 3.51172C2.11719 3.88281 1.66797 4.52734 1.43359 4.97656C1.39453 5.05469 1.375 5.17188 1.375 5.26953C1.375 5.34766 1.39453 5.46484 1.43359 5.54297C2.48828 7.61328 4.59766 9 7 9C7.70312 9 8.38672 8.86328 9.03125 8.64844L8.13281 7.92578C7.76172 8.02344 7.37109 8.0625 7 8.0625Z" fill="#242D33"/>
</svg>
