<svg width="11" height="11" viewBox="0 0 11 11" fill="none" xmlns="http://www.w3.org/2000/svg">
<path d="M10.6289 1.36328L9.88672 0.621094C9.65234 0.386719 9.32031 0.25 9.00781 0.25C8.69531 0.25 8.36328 0.386719 8.12891 0.621094L6.66406 2.08594L6 2.75L1.23438 7.51562L1 9.74219C0.960938 10.0156 1.17578 10.25 1.44922 10.25C1.46875 10.25 1.48828 10.25 1.50781 10.25L3.73438 10.0156L8.5 5.25L9.16406 4.58594L10.6289 3.12109C11.1172 2.63281 11.1172 1.85156 10.6289 1.36328ZM3.30469 9.11719L1.99609 9.25391L2.13281 7.94531L6.64453 3.41406L7.25 2.80859L8.44141 4L7.83594 4.60547L3.30469 9.11719ZM9.96484 2.45703L9.10547 3.33594L7.91406 2.14453L8.79297 1.28516C8.87109 1.20703 8.96875 1.1875 9.00781 1.1875C9.04688 1.1875 9.14453 1.20703 9.22266 1.28516L9.96484 2.02734C10.082 2.14453 10.082 2.33984 9.96484 2.45703Z" fill="#242D33"/>
</svg>
