<svg width="32" height="32" viewBox="6 6 21 21" fill="none" xmlns="http://www.w3.org/2000/svg">
<path d="M25.2461 9.5H10.9375L10.6211 7.95312C10.5508 7.56641 10.1992 7.25 9.8125 7.25H6.29688C6.05078 7.25 5.875 7.46094 5.875 7.67188V8.51562C5.875 8.76172 6.05078 8.9375 6.29688 8.9375H9.10938L11.5352 21.4531C11.1484 21.875 10.9375 22.4023 10.9375 23C10.9375 24.2656 11.9219 25.25 13.1875 25.25C14.418 25.25 15.4375 24.2656 15.4375 23C15.4375 22.6836 15.2969 22.1914 15.1211 21.875H20.2188C20.043 22.1914 19.9375 22.6836 19.9375 23C19.9375 24.2656 20.9219 25.25 22.1875 25.25C23.418 25.25 24.4375 24.2656 24.4375 23C24.4375 22.3672 24.1562 21.8047 23.7344 21.3828L23.7695 21.2422C23.875 20.7148 23.4883 20.1875 22.9258 20.1875H13.0117L12.6953 18.5H23.6641C24.0859 18.5 24.4023 18.2539 24.5078 17.8672L26.0898 10.5547C26.1953 10.0273 25.8086 9.5 25.2461 9.5ZM13.1875 23.8438C12.6953 23.8438 12.3438 23.4922 12.3438 23C12.3438 22.543 12.6953 22.1562 13.1875 22.1562C13.6445 22.1562 14.0312 22.543 14.0312 23C14.0312 23.4922 13.6445 23.8438 13.1875 23.8438ZM22.1875 23.8438C21.6953 23.8438 21.3438 23.4922 21.3438 23C21.3438 22.543 21.6953 22.1562 22.1875 22.1562C22.6445 22.1562 23.0312 22.543 23.0312 23C23.0312 23.4922 22.6445 23.8438 22.1875 23.8438ZM22.9961 16.8125H12.3438L11.2539 11.1875H24.2266L22.9961 16.8125Z" fill="#282C2F"/>
</svg>
