<svg width="44" height="44" viewBox="0 0 44 44" fill="none" xmlns="http://www.w3.org/2000/svg">
<circle cx="22" cy="22" r="22" fill="#C2E6FF"/>
<path d="M22 22.25C24.4609 22.25 26.5 20.2461 26.5 17.75C26.5 15.2891 24.4609 13.25 22 13.25C19.5039 13.25 17.5 15.2891 17.5 17.75C17.5 20.2461 19.5039 22.25 22 22.25ZM25.1289 23.375H24.5312C23.7578 23.7617 22.9141 23.9375 22 23.9375C21.0859 23.9375 20.207 23.7617 19.4336 23.375H18.8359C16.2344 23.375 14.125 25.5195 14.125 28.1211V29.5625C14.125 30.5117 14.8633 31.25 15.8125 31.25H28.1875C29.1016 31.25 29.875 30.5117 29.875 29.5625V28.1211C29.875 25.5195 27.7305 23.375 25.1289 23.375Z" fill="#4B96FB"/>
</svg>
