<svg width="20" height="20" viewBox="0 0 20 20" fill="none" xmlns="http://www.w3.org/2000/svg">
<path d="M4.375 3.5C2.51172 3.5 1 5.01172 1 6.875V13.625C1 15.4883 2.51172 17 4.375 17H7.32812C7.53906 17 7.75 16.8242 7.75 16.5781V15.7344C7.75 15.5234 7.53906 15.3125 7.32812 15.3125H4.375C3.42578 15.3125 2.6875 14.5742 2.6875 13.625V6.875C2.6875 5.96094 3.42578 5.1875 4.375 5.1875H7.32812C7.53906 5.1875 7.75 5.01172 7.75 4.76562V3.92188C7.75 3.71094 7.53906 3.5 7.32812 3.5H4.375ZM12.4961 4.20312L11.793 4.90625C11.6172 5.04688 11.6172 5.32812 11.793 5.50391L15.7656 9.33594H7.04688C6.80078 9.33594 6.625 9.54688 6.625 9.75781V10.7422C6.625 10.9883 6.80078 11.1641 7.04688 11.1641H15.7656L11.793 15.0312C11.6172 15.207 11.6172 15.4883 11.793 15.6289L12.4961 16.332C12.6367 16.5078 12.918 16.5078 13.0938 16.332L18.8594 10.5664C19.0352 10.3906 19.0352 10.1445 18.8594 9.96875L13.0938 4.20312C12.918 4.02734 12.6367 4.02734 12.4961 4.20312Z" fill="#7F8794"/>
</svg>
