<svg width="16" height="19" viewBox="0 1 16 19" fill="none" xmlns="http://www.w3.org/2000/svg">
<path d="M15.5586 13.0117C14.8906 12.2734 13.5898 11.1836 13.5898 7.5625C13.5898 4.85547 11.6914 2.67578 9.08984 2.11328V1.375C9.08984 0.777344 8.59766 0.25 8 0.25C7.36719 0.25 6.875 0.777344 6.875 1.375V2.11328C4.27344 2.67578 2.375 4.85547 2.375 7.5625C2.375 11.1836 1.07422 12.2734 0.40625 13.0117C0.195312 13.2227 0.0898438 13.5039 0.125 13.75C0.125 14.3477 0.546875 14.875 1.25 14.875H14.7148C15.418 14.875 15.8398 14.3477 15.875 13.75C15.875 13.5039 15.7695 13.2227 15.5586 13.0117ZM2.48047 13.1875C3.21875 12.2383 4.02734 10.5859 4.0625 7.59766C4.0625 7.59766 4.0625 7.59766 4.0625 7.5625C4.0625 5.41797 5.82031 3.625 8 3.625C10.1445 3.625 11.9375 5.41797 11.9375 7.5625C11.9375 7.59766 11.9023 7.59766 11.9023 7.59766C11.9375 10.5859 12.7461 12.2383 13.4844 13.1875H2.48047ZM8 18.25C9.23047 18.25 10.2148 17.2656 10.2148 16H5.75C5.75 17.2656 6.73438 18.25 8 18.25Z" fill="#282C2F"/>
</svg>
