<svg width="32" height="32" viewBox="7 7 20 20" fill="none" xmlns="http://www.w3.org/2000/svg">
<path d="M24.8594 23.7383L20.6055 19.4844C20.5 19.4141 20.3945 19.3438 20.2891 19.3438H19.832C20.9219 18.0781 21.625 16.3906 21.625 14.5625C21.625 10.5547 18.3203 7.25 14.3125 7.25C10.2695 7.25 7 10.5547 7 14.5625C7 18.6055 10.2695 21.875 14.3125 21.875C16.1406 21.875 17.793 21.207 19.0938 20.1172V20.5742C19.0938 20.6797 19.1289 20.7852 19.1992 20.8906L23.4531 25.1445C23.6289 25.3203 23.9102 25.3203 24.0508 25.1445L24.8594 24.3359C25.0352 24.1953 25.0352 23.9141 24.8594 23.7383ZM14.3125 20.1875C11.1836 20.1875 8.6875 17.6914 8.6875 14.5625C8.6875 11.4688 11.1836 8.9375 14.3125 8.9375C17.4062 8.9375 19.9375 11.4688 19.9375 14.5625C19.9375 17.6914 17.4062 20.1875 14.3125 20.1875Z" fill="#282C2F"/>
</svg>
