<svg width="9" height="9" viewBox="0 0 9 9" fill="none" xmlns="http://www.w3.org/2000/svg">
<path d="M5.44366 4.48592L8.34507 1.61268L8.93662 1.02113C9.02113 0.93662 9.02113 0.795775 8.93662 0.683099L8.3169 0.0633803C8.20423 -0.0211268 8.06338 -0.0211268 7.97887 0.0633803L4.51408 3.55634L1.02113 0.0633803C0.93662 -0.0211268 0.795775 -0.0211268 0.683099 0.0633803L0.0633803 0.683099C-0.0211268 0.795775 -0.0211268 0.93662 0.0633803 1.02113L3.55634 4.48592L0.0633803 7.97887C-0.0211268 8.06338 -0.0211268 8.20423 0.0633803 8.3169L0.683099 8.93662C0.795775 9.02113 0.93662 9.02113 1.02113 8.93662L4.51408 5.44366L7.38732 8.34507L7.97887 8.93662C8.06338 9.02113 8.20423 9.02113 8.3169 8.93662L8.93662 8.3169C9.02113 8.20423 9.02113 8.06338 8.93662 7.97887L5.44366 4.48592Z" fill="#4B96FB"/>
</svg>
