<svg width="20" height="20" viewBox="0 0 20 20" fill="none" xmlns="http://www.w3.org/2000/svg">
<path d="M13 5C13 3.34375 11.6562 2 10 2C8.3125 2 7 3.34375 7 5C7 6.6875 8.3125 8 10 8C11.6562 8 13 6.6875 13 5ZM9.28125 9.5625C7.4375 8.40625 4.4375 8.09375 2.90625 8.03125C2.40625 8 2 8.375 2 8.875V15.8125C2 16.2812 2.34375 16.6562 2.8125 16.6562C4.1875 16.75 6.9375 17 8.84375 17.9688C9.125 18.125 9.5 17.9062 9.5 17.5938V9.90625C9.5 9.75 9.40625 9.625 9.28125 9.5625ZM17.0625 8.03125C15.5312 8.09375 12.5312 8.40625 10.6875 9.5625C10.5625 9.625 10.5 9.78125 10.5 9.90625V17.5938C10.5 17.9062 10.8438 18.125 11.125 17.9688C13.0312 17 15.7812 16.75 17.1562 16.6875C17.625 16.6562 18 16.2812 18 15.8125V8.875C18 8.375 17.5625 8 17.0625 8.03125Z" fill="#7F8794"/>
</svg>
