<svg width="20" height="20" viewBox="0 0 20 20" fill="none" xmlns="http://www.w3.org/2000/svg">
<path d="M18.875 9.5625C17.1875 6.25 13.8125 4 10 4C6.15625 4 2.78125 6.25 1.09375 9.5625C1.03125 9.6875 1 9.875 1 10.0312C1 10.1562 1.03125 10.3438 1.09375 10.4688C2.78125 13.7812 6.15625 16 10 16C13.8125 16 17.1875 13.7812 18.875 10.4688C18.9375 10.3438 18.9688 10.1562 18.9688 10C18.9688 9.875 18.9375 9.6875 18.875 9.5625ZM10 14.5C7.5 14.5 5.5 12.5 5.5 10C5.5 7.53125 7.5 5.5 10 5.5C12.4688 5.5 14.5 7.53125 14.5 10V10.0312C14.5 12.5 12.4688 14.5 10 14.5ZM10 7C9.75 7.03125 9.40625 7.0625 9.1875 7.125C9.34375 7.34375 9.5 7.75 9.5 8.03125C9.5 8.84375 8.8125 9.5 8 9.5C7.71875 9.5 7.3125 9.375 7.09375 9.21875C7.03125 9.4375 7 9.78125 7 10C7 11.6562 8.34375 13 10 13C11.6562 13 13 11.6562 13 10C13 8.34375 11.6562 7 10 7Z" fill="#7F8794"/>
</svg>
