<svg width="20" height="20" viewBox="0 0 20 20" fill="none" xmlns="http://www.w3.org/2000/svg">
<path d="M16.5625 9.78125C16.5625 6.0625 13.5001 3 9.78125 3C6.03516 3 3 6.0625 3 9.78125C3 13.5273 6.03516 16.5625 9.78125 16.5625C13.5001 16.5625 16.5625 13.5273 16.5625 9.78125ZM8.98828 13.3906C8.82422 13.5546 8.52344 13.5546 8.35937 13.3906L5.51563 10.5469C5.35156 10.3829 5.35156 10.082 5.51563 9.91797L6.14453 9.31641C6.30859 9.125 6.58203 9.125 6.74609 9.31641L8.6875 11.2304L12.7891 7.12891C12.9532 6.9375 13.2265 6.9375 13.3906 7.12891L14.0196 7.73047C14.1836 7.89453 14.1836 8.19531 14.0196 8.35937L8.98828 13.3906Z" fill="#EA1B4D"/>
</svg>
