<svg width="26" height="21" viewBox="0 0 26 21" fill="none" xmlns="http://www.w3.org/2000/svg">
<path d="M22.4141 0.5C21.9453 0.5 16.3594 0.773438 13 2.72656C9.60156 0.773438 4.01562 0.5 3.54688 0.5C1.86719 0.5 0.5 1.86719 0.5 3.50781V15.7734C0.5 17.3359 1.75 18.6641 3.35156 18.7422C4.79688 18.8203 8.39062 19.1328 10.6953 20.2656C11.0078 20.4219 11.3594 20.5 11.7109 20.5H14.25C14.6016 20.5 14.9531 20.4219 15.2656 20.2656C17.5703 19.1328 21.1641 18.8203 22.6094 18.7422C24.2109 18.6641 25.5 17.3359 25.5 15.7734V3.50781C25.5 1.86719 24.0938 0.5 22.4141 0.5ZM12.0625 17.6484C12.0625 18.0781 11.6328 18.3906 11.2031 18.2344C8.70312 17.2578 5.1875 16.9844 3.46875 16.8672C2.84375 16.8281 2.375 16.3594 2.375 15.7734V3.50781C2.375 2.88281 2.88281 2.375 3.54688 2.375C4.28906 2.41406 8.46875 2.6875 11.2812 3.97656C11.75 4.17188 12.0234 4.64062 12.0234 5.10938L12.0625 9.25V17.6484ZM23.625 15.7734C23.625 16.3594 23.1172 16.8281 22.4922 16.8672C20.7734 16.9844 17.2578 17.2578 14.7578 18.2344C14.3281 18.3906 13.9375 18.0781 13.9375 17.6484V9.25V5.10938C13.9375 4.64062 14.2109 4.17188 14.6797 3.97656C17.4922 2.6875 21.6719 2.41406 22.4141 2.375C23.0781 2.375 23.625 2.88281 23.625 3.50781V15.7734Z" fill="#242D33"/>
</svg>
