<svg width="20" height="20" viewBox="0 0 20 20" fill="none" xmlns="http://www.w3.org/2000/svg">
<path d="M16.25 12.8438V3.65625C16.25 3.30078 15.9492 3 15.5938 3H6.625C5.17578 3 4 4.17578 4 5.625V14.375C4 15.8242 5.17578 17 6.625 17H15.5938C15.9492 17 16.25 16.7266 16.25 16.3438V15.9062C16.25 15.7148 16.1406 15.5234 16.0039 15.4141C15.8672 14.9766 15.8672 13.7734 16.0039 13.3633C16.1406 13.2539 16.25 13.0625 16.25 12.8438ZM7.5 6.66406C7.5 6.58203 7.55469 6.5 7.66406 6.5H13.4609C13.543 6.5 13.625 6.58203 13.625 6.66406V7.21094C13.625 7.32031 13.543 7.375 13.4609 7.375H7.66406C7.55469 7.375 7.5 7.32031 7.5 7.21094V6.66406ZM7.5 8.41406C7.5 8.33203 7.55469 8.25 7.66406 8.25H13.4609C13.543 8.25 13.625 8.33203 13.625 8.41406V8.96094C13.625 9.07031 13.543 9.125 13.4609 9.125H7.66406C7.55469 9.125 7.5 9.07031 7.5 8.96094V8.41406ZM14.418 15.25H6.625C6.13281 15.25 5.75 14.8672 5.75 14.375C5.75 13.9102 6.13281 13.5 6.625 13.5H14.418C14.3633 13.9922 14.3633 14.7852 14.418 15.25Z" fill="#282C2F"/>
</svg>
