<svg width="22" height="20" viewBox="0 0 22 20" fill="none" xmlns="http://www.w3.org/2000/svg">
<path d="M21.0898 17.2461L16.9766 1.67188C16.9062 1.39062 16.5898 1.21484 16.2734 1.28516L15.7461 1.42578C15.4648 1.49609 15.3242 1.74219 15.3242 2.02344C14.9375 2.26953 13.0742 2.76172 12.582 2.76172C12.4766 2.51562 12.1953 2.375 11.9492 2.44531L11.5625 2.55078V2.375C11.5625 1.77734 11.0352 1.25 10.1562 1.25H1.71875C1.36719 1.25 0.875 1.77734 0.875 2.375V18.125C0.875 18.7578 1.36719 19.25 1.71875 19.25H10.1562C11.0352 19.25 11.5625 18.7578 11.5625 18.125V5.32812L15.1133 18.8633C15.1836 19.1445 15.5 19.3203 15.8164 19.25L16.3438 19.1094C16.625 19.0391 16.7656 18.793 16.7656 18.5117C17.1523 18.2656 19.0156 17.7734 19.5078 17.7734C19.6133 18.0195 19.8945 18.1602 20.1406 18.0898L20.7031 17.9492C20.9844 17.8438 21.1602 17.5625 21.0898 17.2461ZM5.375 17.5625H2.5625V15.875H5.375V17.5625ZM5.375 14.1875H2.5625V6.3125H5.375V14.1875ZM5.375 4.625H2.5625V2.9375H5.375V4.625ZM9.875 17.5625H7.0625V15.875H9.875V17.5625ZM9.875 14.1875H7.0625V6.3125H9.875V14.1875ZM9.875 4.625H7.0625V2.9375H9.875V4.625ZM16.3789 17.1406L12.9688 4.13281C13.5664 4.0625 15.1133 3.67578 15.7109 3.39453L19.1211 16.4023C18.5234 16.4727 16.9766 16.8594 16.3789 17.1406Z" fill="white"/>
</svg>
