<svg width="18" height="14" viewBox="0 0 18 14" fill="none" xmlns="http://www.w3.org/2000/svg">
<path d="M8.12109 0.5C7.91016 0.5 7.69922 0.605469 7.55859 0.78125L4.42969 3.875H0.84375C0.351562 3.875 0 4.26172 0 4.71875V9.78125C0 10.2734 0.351562 10.625 0.84375 10.625H4.42969L7.55859 13.7539C7.69922 13.9297 7.91016 14 8.12109 14C8.57812 14 9 13.6836 9 13.1562V1.37891C9 0.851562 8.57812 0.5 8.12109 0.5ZM7.3125 11.1523L5.625 9.46484L5.09766 8.9375H1.6875V5.5625H5.09766L5.625 5.07031L7.3125 3.38281V11.1523ZM16.3477 7.25L17.8242 5.80859C18.0352 5.59766 18.0352 5.24609 17.8242 5L17.4375 4.61328C17.1914 4.40234 16.8398 4.40234 16.6289 4.61328L15.1875 6.08984L13.7109 4.61328C13.5 4.40234 13.1484 4.40234 12.9375 4.61328L12.5156 5C12.3047 5.24609 12.3047 5.59766 12.5156 5.80859L13.9922 7.25L12.5156 8.72656C12.3047 8.9375 12.3047 9.28906 12.5156 9.5L12.9375 9.92188C13.1484 10.1328 13.5 10.1328 13.7109 9.92188L15.1875 8.44531L16.6289 9.92188C16.8398 10.1328 17.1914 10.1328 17.4375 9.92188L17.8242 9.5C18.0352 9.28906 18.0352 8.9375 17.8242 8.72656L16.3477 7.25Z" fill="#7F8794"/>
</svg>
