<svg width="18" height="18" viewBox="0 0 18 18" fill="none" xmlns="http://www.w3.org/2000/svg">
<path d="M17.7188 9.25C17.7188 4.43359 13.8164 0.53125 9 0.53125C4.18359 0.53125 0.28125 4.43359 0.28125 9.25C0.28125 14.0664 4.18359 17.9688 9 17.9688C13.8164 17.9688 17.7188 14.0664 17.7188 9.25ZM1.96875 9.25C1.96875 5.38281 5.09766 2.21875 9 2.21875C12.8672 2.21875 16.0312 5.38281 16.0312 9.25C16.0312 13.1523 12.8672 16.2812 9 16.2812C5.09766 16.2812 1.96875 13.1523 1.96875 9.25ZM12.375 6.4375C12.375 6.15625 12.0938 5.875 11.8125 5.875H6.1875C5.87109 5.875 5.625 6.15625 5.625 6.4375V12.0625C5.625 12.3789 5.87109 12.625 6.1875 12.625H11.8125C12.0938 12.625 12.375 12.3789 12.375 12.0625V6.4375Z" fill="#7F8794"/>
</svg>
