<svg width="20" height="20" viewBox="0 0 20 20" fill="none" xmlns="http://www.w3.org/2000/svg">
<path d="M10 10C9.4375 10 9 10.4688 9 11C9 11.5625 9.4375 12 10 12C10.5312 12 11 11.5625 11 11C11 10.4688 10.5312 10 10 10ZM16 2H4C2.875 2 2 2.90625 2 4V13C2 14.125 2.875 15 4 15H7V17.625C7 17.875 7.15625 18 7.375 18C7.4375 18 7.5 18 7.59375 17.9375L11.5 15H16C17.0938 15 18 14.125 18 13V4C18 2.90625 17.0938 2 16 2ZM16.5 13C16.5 13.2812 16.25 13.5 16 13.5H11L10.5938 13.8125L8.5 15.375V13.5H4C3.71875 13.5 3.5 13.2812 3.5 13V4C3.5 3.75 3.71875 3.5 4 3.5H16C16.25 3.5 16.5 3.75 16.5 4V13ZM10.875 5H9.09375C8.78125 5 8.53125 5.3125 8.59375 5.59375L9.15625 8.59375C9.21875 8.84375 9.40625 9 9.65625 9H10.3125C10.5625 9 10.7812 8.84375 10.8125 8.59375L11.375 5.59375C11.4375 5.3125 11.1875 5 10.875 5Z" fill="#EA1B4D"/>
</svg>
