<svg width="18" height="18" viewBox="0 0 18 18" fill="none" xmlns="http://www.w3.org/2000/svg">
<path d="M13.6406 1.90234C13.4297 1.76172 13.1484 1.83203 13.043 2.04297L12.6211 2.78125C12.5156 2.95703 12.5859 3.20312 12.7617 3.34375C14.7305 4.57422 16.0312 6.78906 16.0312 9.25C16.0312 13.1523 12.8672 16.2812 9 16.2812C5.09766 16.2812 1.96875 13.1523 1.96875 9.25C1.96875 6.78906 3.23438 4.57422 5.20312 3.34375C5.37891 3.20312 5.44922 2.95703 5.34375 2.78125L4.92188 2.04297C4.81641 1.83203 4.53516 1.76172 4.32422 1.90234C1.89844 3.44922 0.246094 6.15625 0.28125 9.28516C0.28125 14.0664 4.21875 18.0039 9 17.9688C13.8164 17.9688 17.7188 14.0664 17.7188 9.25C17.7188 6.15625 16.0664 3.44922 13.6406 1.90234ZM9.84375 9.95312V0.671875C9.84375 0.460938 9.63281 0.25 9.42188 0.25H8.57812C8.33203 0.25 8.15625 0.460938 8.15625 0.671875V9.95312C8.15625 10.1992 8.33203 10.375 8.57812 10.375H9.42188C9.63281 10.375 9.84375 10.1992 9.84375 9.95312Z" fill="#7F8794"/>
</svg>
