<svg width="17" height="17" viewBox="0 0 17 17" fill="none" xmlns="http://www.w3.org/2000/svg">
<path d="M10.8125 6.1875C10.4688 5.84375 10.0938 5.59375 9.6875 5.375C9.53125 5.3125 9.375 5.34375 9.25 5.46875L9.125 5.59375C8.84375 5.84375 8.6875 6.1875 8.65625 6.53125C8.625 6.6875 8.71875 6.84375 8.84375 6.9375C9.0625 7.03125 9.40625 7.25 9.5625 7.4375C10.5938 8.46875 10.5938 10.125 9.5625 11.1562L7.21875 13.5C6.1875 14.5312 4.53125 14.5312 3.5 13.5C2.46875 12.4688 2.46875 10.8125 3.5 9.78125L4.9375 8.34375C5.03125 8.25 5.0625 8.125 5.03125 8C4.96875 7.6875 4.90625 7.15625 4.875 6.8125C4.875 6.5 4.46875 6.34375 4.25 6.5625C3.875 6.9375 3.28125 7.53125 2.28125 8.53125C0.5625 10.25 0.5625 13.0312 2.28125 14.7188C3.96875 16.4375 6.75 16.4375 8.46875 14.7188C11.0312 12.1562 10.9062 12.2812 11.0938 12.0312C12.5 10.3438 12.4062 7.78125 10.8125 6.1875ZM15.6875 1.3125C14 -0.40625 11.2188 -0.40625 9.5 1.3125C6.9375 3.875 7.0625 3.75 6.875 4C5.46875 5.6875 5.5625 8.25 7.15625 9.84375C7.5 10.1875 7.875 10.4375 8.28125 10.6562C8.4375 10.7188 8.59375 10.6875 8.71875 10.5625L8.84375 10.4375C9.125 10.1875 9.28125 9.84375 9.3125 9.5C9.34375 9.34375 9.25 9.1875 9.125 9.09375C8.90625 9 8.5625 8.78125 8.40625 8.59375C7.375 7.5625 7.375 5.90625 8.40625 4.875L10.75 2.53125C11.7812 1.5 13.4375 1.5 14.4688 2.53125C15.5 3.5625 15.5 5.21875 14.4688 6.25L13.0312 7.6875C12.9375 7.78125 12.9062 7.90625 12.9375 8.03125C13 8.34375 13.0625 8.875 13.0938 9.21875C13.0938 9.53125 13.5 9.6875 13.7188 9.46875C14.0938 9.09375 14.6875 8.5 15.6875 7.5C17.4062 5.78125 17.4062 3 15.6875 1.3125Z" fill="#7F8794"/>
</svg>
