<svg width="20" height="20" viewBox="0 0 20 20" fill="none" xmlns="http://www.w3.org/2000/svg">
<path d="M15.9531 5.27344C14.6641 5.34375 12.1094 5.60156 10.5391 6.5625C10.4219 6.63281 10.3516 6.75 10.3516 6.86719V15.3984C10.3516 15.6797 10.6562 15.8438 10.9141 15.7266C12.5312 14.9062 14.875 14.6719 16.0234 14.625C16.4219 14.6016 16.7266 14.2734 16.7266 13.8984V5.97656C16.75 5.57812 16.375 5.25 15.9531 5.27344ZM9.4375 6.5625C7.86719 5.60156 5.3125 5.34375 4.02344 5.27344C3.60156 5.25 3.25 5.57812 3.25 5.97656V13.8984C3.25 14.2734 3.55469 14.6016 3.95312 14.625C5.10156 14.6719 7.44531 14.9062 9.0625 15.7266C9.32031 15.8438 9.625 15.6797 9.625 15.3984V6.86719C9.625 6.75 9.55469 6.63281 9.4375 6.5625Z" fill="#7F8794"/>
</svg>
