<svg width="20" height="20" viewBox="0 0 20 20" fill="none" xmlns="http://www.w3.org/2000/svg">
<path d="M10 10.5C11.6406 10.5 13 9.16406 13 7.5C13 5.85938 11.6406 4.5 10 4.5C8.33594 4.5 7 5.85938 7 7.5C7 9.16406 8.33594 10.5 10 10.5ZM12.0859 11.25H11.6875C11.1719 11.5078 10.6094 11.625 10 11.625C9.39062 11.625 8.80469 11.5078 8.28906 11.25H7.89062C6.15625 11.25 4.75 12.6797 4.75 14.4141V15.375C4.75 16.0078 5.24219 16.5 5.875 16.5H14.125C14.7344 16.5 15.25 16.0078 15.25 15.375V14.4141C15.25 12.6797 13.8203 11.25 12.0859 11.25Z" fill="#7F8794"/>
</svg>
