<svg width="28" height="32" viewBox="0 0 28 32" fill="none" xmlns="http://www.w3.org/2000/svg">
<path d="M8 9.5C8 9.8125 8.1875 10 8.5 10H21.5C21.75 10 22 9.8125 22 9.5V7.5C22 7.25 21.75 7 21.5 7H8.5C8.1875 7 8 7.25 8 7.5V9.5ZM8.5 15H21.5C21.75 15 22 14.8125 22 14.5V12.5C22 12.25 21.75 12 21.5 12H8.5C8.1875 12 8 12.25 8 12.5V14.5C8 14.8125 8.1875 15 8.5 15ZM27.1875 25C27.625 24.9375 28 24.5 28 24V1C28 0.5 27.5 0 27 0H5C2.1875 0 0 2.25 0 5V27C0 29.8125 2.1875 32 5 32H27C27.5 32 28 31.5625 28 31V30C28 29.5625 27.625 29.125 27.1875 29.0625C26.875 28.25 26.875 25.8125 27.1875 25ZM24.625 25C24.4375 26.125 24.4375 27.9375 24.625 29H5C3.875 29 3 28.125 3 27C3 25.9375 3.875 25 5 25H24.625ZM25 3V22H5C4.25 22 3.5625 22.1875 3 22.4375V5C3 3.9375 3.875 3 5 3H25Z" fill="#D0D9DD"/>
</svg>
