<svg width="21" height="20" viewBox="0 0 21 20" fill="none" xmlns="http://www.w3.org/2000/svg">
<path d="M11.7988 15.875H12.6426C12.8535 15.875 13.0645 15.6992 13.0645 15.4531V7.85938C13.0645 7.64844 12.8535 7.4375 12.6426 7.4375H11.7988C11.5527 7.4375 11.377 7.64844 11.377 7.85938V15.4531C11.377 15.6992 11.5527 15.875 11.7988 15.875ZM17.5645 4.0625H14.6465L13.4512 2.09375C13.1699 1.63672 12.5371 1.25 12.0098 1.25H8.45898C7.93164 1.25 7.29883 1.63672 7.01758 2.09375L5.82227 4.0625H2.93945C2.62305 4.0625 2.37695 4.34375 2.37695 4.625V5.1875C2.37695 5.50391 2.62305 5.75 2.93945 5.75H3.50195V17.5625C3.50195 18.5117 4.24023 19.25 5.18945 19.25H15.3145C16.2285 19.25 17.002 18.5117 17.002 17.5625V5.75H17.5645C17.8457 5.75 18.127 5.50391 18.127 5.1875V4.625C18.127 4.34375 17.8457 4.0625 17.5645 4.0625ZM8.38867 3.04297C8.42383 3.00781 8.5293 2.9375 8.56445 2.9375H8.59961H11.9043C11.9395 2.9375 12.0449 3.00781 12.0801 3.04297L12.6777 4.0625H7.79102L8.38867 3.04297ZM15.3145 17.5625H5.18945V5.75H15.3145V17.5625ZM7.86133 15.875H8.70508C8.91602 15.875 9.12695 15.6992 9.12695 15.4531V7.85938C9.12695 7.64844 8.91602 7.4375 8.70508 7.4375H7.86133C7.61523 7.4375 7.43945 7.64844 7.43945 7.85938V15.4531C7.43945 15.6992 7.61523 15.875 7.86133 15.875Z" fill="#7F8794"/>
</svg>
