<svg width="21" height="21" viewBox="0 0 21 21" fill="none" xmlns="http://www.w3.org/2000/svg">
<path d="M19.3711 4.64694H5.0625L4.74609 3.19106C4.67578 2.82709 4.32422 2.5293 3.9375 2.5293H0.421875C0.175781 2.5293 0 2.72783 0 2.92636V3.72047C0 3.95209 0.175781 4.11753 0.421875 4.11753H3.23438L5.66016 15.8969C5.27344 16.294 5.0625 16.7903 5.0625 17.3528C5.0625 18.544 6.04688 19.4705 7.3125 19.4705C8.54297 19.4705 9.5625 18.544 9.5625 17.3528C9.5625 17.055 9.42188 16.5918 9.24609 16.294H14.3438C14.168 16.5918 14.0625 17.055 14.0625 17.3528C14.0625 18.544 15.0469 19.4705 16.3125 19.4705C17.543 19.4705 18.5625 18.544 18.5625 17.3528C18.5625 16.7572 18.2812 16.2278 17.8594 15.8308L17.8945 15.6984C18 15.2021 17.6133 14.7058 17.0508 14.7058H7.13672L6.82031 13.1175H17.7891C18.2109 13.1175 18.5273 12.8859 18.6328 12.5219L20.2148 5.63959C20.3203 5.14327 19.9336 4.64694 19.3711 4.64694ZM7.3125 18.1469C6.82031 18.1469 6.46875 17.8161 6.46875 17.3528C6.46875 16.9227 6.82031 16.5587 7.3125 16.5587C7.76953 16.5587 8.15625 16.9227 8.15625 17.3528C8.15625 17.8161 7.76953 18.1469 7.3125 18.1469ZM16.3125 18.1469C15.8203 18.1469 15.4688 17.8161 15.4688 17.3528C15.4688 16.9227 15.8203 16.5587 16.3125 16.5587C16.7695 16.5587 17.1562 16.9227 17.1562 17.3528C17.1562 17.8161 16.7695 18.1469 16.3125 18.1469ZM17.1211 11.5293H6.46875L5.37891 6.23518H18.3516L17.1211 11.5293Z" fill="#7F8794"/>
</svg>
