<svg width="20" height="20" viewBox="0 0 20 20" fill="none" xmlns="http://www.w3.org/2000/svg">
<path d="M10 8.5625C9.05078 8.5625 8.3125 9.33594 8.3125 10.25C8.3125 11.1992 9.05078 11.9375 10 11.9375C10.9141 11.9375 11.6875 11.1992 11.6875 10.25C11.6875 9.33594 10.9141 8.5625 10 8.5625ZM8.3125 4.90625C8.3125 5.85547 9.05078 6.59375 10 6.59375C10.9141 6.59375 11.6875 5.85547 11.6875 4.90625C11.6875 3.99219 10.9141 3.21875 10 3.21875C9.05078 3.21875 8.3125 3.99219 8.3125 4.90625ZM8.3125 15.5938C8.3125 16.543 9.05078 17.2812 10 17.2812C10.9141 17.2812 11.6875 16.543 11.6875 15.5938C11.6875 14.6797 10.9141 13.9062 10 13.9062C9.05078 13.9062 8.3125 14.6797 8.3125 15.5938Z" fill="#7F8794"/>
</svg>
