<svg width="20" height="20" viewBox="0 0 20 20" fill="none" xmlns="http://www.w3.org/2000/svg">
<path d="M17.5 11H14.5938L16.0625 9.5625C17 8.625 16.3125 7 15 7H13V3.5C13 2.6875 12.3125 2 11.5 2H8.5C7.65625 2 7 2.6875 7 3.5V7H5C3.65625 7 2.96875 8.625 3.9375 9.5625L5.375 11H2.5C1.65625 11 1 11.6875 1 12.5V16.5C1 17.3438 1.65625 18 2.5 18H17.5C18.3125 18 19 17.3438 19 16.5V12.5C19 11.6875 18.3125 11 17.5 11ZM5 8.5H8.5V3.5H11.5V8.5H15L10 13.5L5 8.5ZM17.5 16.5H2.5V12.5H6.875L8.9375 14.5625C9.5 15.1562 10.4688 15.1562 11.0312 14.5625L13.0938 12.5H17.5V16.5ZM14.75 14.5C14.75 14.9375 15.0625 15.25 15.5 15.25C15.9062 15.25 16.25 14.9375 16.25 14.5C16.25 14.0938 15.9062 13.75 15.5 13.75C15.0625 13.75 14.75 14.0938 14.75 14.5Z" fill="#7F8794"/>
</svg>
