<svg width="32" height="32" viewBox="0 0 32 32" fill="none" xmlns="http://www.w3.org/2000/svg">
<path d="M17.8125 14.1875C17.4688 13.8438 17.0938 13.5938 16.6875 13.375C16.5312 13.3125 16.375 13.3438 16.25 13.4688L16.125 13.5938C15.8438 13.8438 15.6875 14.1875 15.6562 14.5312C15.625 14.6875 15.7188 14.8438 15.8438 14.9375C16.0625 15.0312 16.4062 15.25 16.5625 15.4375C17.5938 16.4688 17.5938 18.125 16.5625 19.1562L14.2188 21.5C13.1875 22.5312 11.5312 22.5312 10.5 21.5C9.46875 20.4688 9.46875 18.8125 10.5 17.7812L11.9375 16.3438C12.0312 16.25 12.0625 16.125 12.0312 16C11.9688 15.6875 11.9062 15.1562 11.875 14.8125C11.875 14.5 11.4688 14.3438 11.25 14.5625C10.875 14.9375 10.2812 15.5312 9.28125 16.5312C7.5625 18.25 7.5625 21.0312 9.28125 22.7188C10.9688 24.4375 13.75 24.4375 15.4688 22.7188C18.0312 20.1562 17.9062 20.2812 18.0938 20.0312C19.5 18.3438 19.4062 15.7812 17.8125 14.1875ZM22.6875 9.3125C21 7.59375 18.2188 7.59375 16.5 9.3125C13.9375 11.875 14.0625 11.75 13.875 12C12.4688 13.6875 12.5625 16.25 14.1562 17.8438C14.5 18.1875 14.875 18.4375 15.2812 18.6562C15.4375 18.7188 15.5938 18.6875 15.7188 18.5625L15.8438 18.4375C16.125 18.1875 16.2812 17.8438 16.3125 17.5C16.3438 17.3438 16.25 17.1875 16.125 17.0938C15.9062 17 15.5625 16.7812 15.4062 16.5938C14.375 15.5625 14.375 13.9062 15.4062 12.875L17.75 10.5312C18.7812 9.5 20.4375 9.5 21.4688 10.5312C22.5 11.5625 22.5 13.2188 21.4688 14.25L20.0312 15.6875C19.9375 15.7812 19.9062 15.9062 19.9375 16.0312C20 16.3438 20.0625 16.875 20.0938 17.2188C20.0938 17.5312 20.5 17.6875 20.7188 17.4688C21.0938 17.0938 21.6875 16.5 22.6875 15.5C24.4062 13.7812 24.4062 11 22.6875 9.3125Z" fill="#282C2F"/>
</svg>
