<svg width="32" height="32" viewBox="0 0 32 32" fill="none" xmlns="http://www.w3.org/2000/svg">
<path d="M16.0033 15.3839C18.2355 15.3839 20.0569 13.5714 20.0569 11.3392C20.0569 9.09815 18.2355 7.28564 16.0033 7.28564C13.7712 7.28564 11.9498 9.09815 11.9498 11.3392C11.9498 13.5714 13.7712 15.3839 16.0033 15.3839ZM16.0033 9.33922C17.1016 9.33922 17.9944 10.2321 17.9944 11.3392C17.9944 12.4374 17.1016 13.3303 16.0033 13.3303C14.9051 13.3303 14.0123 12.4374 14.0123 11.3392C14.0123 10.2321 14.9051 9.33922 16.0033 9.33922ZM20.673 15.8749C20.4408 15.4196 19.8069 15.0356 18.9676 15.6964C18.9676 15.6964 17.8337 16.5981 16.0033 16.5981C14.173 16.5981 13.0391 15.6964 13.0391 15.6964C12.1998 15.0356 11.5658 15.4196 11.3337 15.8749C10.9408 16.6785 11.3873 17.0624 12.4051 17.7231C13.2712 18.2767 14.4676 18.4821 15.2355 18.5624L14.5926 19.2053C13.6819 20.1071 12.8158 20.9821 12.2087 21.5892C11.8426 21.9553 11.8426 22.5446 12.2087 22.9017L12.3158 23.0178C12.673 23.3749 13.2623 23.3749 13.6283 23.0178L16.0123 20.6249C16.923 21.5356 17.798 22.4106 18.3962 23.0178C18.7623 23.3749 19.3516 23.3749 19.7176 23.0178L19.8248 22.9017C20.1819 22.5446 20.1819 21.9553 19.8248 21.5892L17.4408 19.2053L16.7891 18.5624C17.5658 18.4821 18.7444 18.2678 19.6016 17.7231C20.6194 17.0624 21.0658 16.6785 20.673 15.8749Z" fill="#F27220"/>
</svg>
