<svg width="21" height="20" viewBox="0 0 21 20" fill="none" xmlns="http://www.w3.org/2000/svg">
<path d="M14.4744 9.75H11.0994V6.375C11.0994 6.1875 10.9119 6 10.7244 6H9.97437C9.76343 6 9.59937 6.1875 9.59937 6.375V9.75H6.22437C6.01343 9.75 5.84937 9.9375 5.84937 10.125V10.875C5.84937 11.0859 6.01343 11.25 6.22437 11.25H9.59937V14.625C9.59937 14.8359 9.76343 15 9.97437 15H10.7244C10.9119 15 11.0994 14.8359 11.0994 14.625V11.25H14.4744C14.6619 11.25 14.8494 11.0859 14.8494 10.875V10.125C14.8494 9.9375 14.6619 9.75 14.4744 9.75Z" fill="#282C2F"/>
</svg>
