<svg width="20" height="20" viewBox="0 0 20 20" fill="none" xmlns="http://www.w3.org/2000/svg">
<path d="M11.75 2.75C8.85156 2.75 6.5 3.73438 6.5 4.9375V6.38672C4.44922 6.6875 3 7.50781 3 8.4375V14.5625C3 15.793 5.35156 16.75 8.25 16.75C11.1484 16.75 13.5 15.793 13.5 14.5625V13.1406C15.5234 12.8398 17 12.0195 17 11.0625V4.9375C17 3.73438 14.6484 2.75 11.75 2.75ZM12.1875 14.4805C11.9141 14.7812 10.5195 15.4375 8.25 15.4375C5.95312 15.4375 4.58594 14.7812 4.3125 14.4805V13.3867C5.26953 13.8516 6.66406 14.125 8.25 14.125C9.80859 14.125 11.2031 13.8516 12.1875 13.3867V14.4805ZM12.1875 11.8555C11.9141 12.1562 10.5195 12.8125 8.25 12.8125C5.95312 12.8125 4.58594 12.1562 4.3125 11.8555V10.625C5.26953 11.1719 6.66406 11.5 8.25 11.5C9.80859 11.5 11.2031 11.1719 12.1875 10.625V11.8555ZM8.25 10.1875C6.0625 10.1875 4.3125 9.61328 4.3125 8.875C4.3125 8.16406 6.0625 7.5625 8.25 7.5625C10.4102 7.5625 12.1875 8.16406 12.1875 8.875C12.1875 9.61328 10.4102 10.1875 8.25 10.1875ZM15.6875 10.9805C15.4688 11.1992 14.7305 11.582 13.5 11.8008V10.4883C14.3477 10.3789 15.0859 10.1602 15.6875 9.88672V10.9805ZM15.6875 8.35547C15.4688 8.57422 14.7305 8.95703 13.5 9.17578V8.4375C13.5 8.24609 13.418 8.05469 13.3086 7.89062C14.2383 7.72656 15.0586 7.48047 15.6875 7.125V8.35547ZM11.75 6.6875C11.6133 6.6875 11.4766 6.6875 11.3398 6.6875C10.6289 6.46875 9.78125 6.33203 8.85156 6.27734C8.22266 6.03125 7.8125 5.73047 7.8125 5.375C7.8125 4.66406 9.5625 4.0625 11.75 4.0625C13.9102 4.0625 15.6875 4.66406 15.6875 5.375C15.6875 6.11328 13.9102 6.6875 11.75 6.6875Z" fill="#242D33"/>
</svg>
