<svg width="24" height="20" viewBox="0 0 24 20" fill="none" xmlns="http://www.w3.org/2000/svg">
<path d="M22.7227 11.5859C23.3906 10.9531 23.3906 9.86328 22.7227 9.19531L15.3047 1.77734C15.0234 1.49609 14.4961 1.25 14.1094 1.25H12.3867L21.5625 10.3906L13.1602 18.7578C13.8281 19.4258 14.918 19.4258 15.5508 18.7578L22.7227 11.5859ZM18.2227 11.5859C18.8906 10.9531 18.8906 9.86328 18.2227 9.19531L10.8047 1.77734C10.5234 1.49609 9.99609 1.25 9.60938 1.25H2.4375C1.48828 1.25 0.75 2.02344 0.75 2.9375V10.1445C0.75 10.5312 0.960938 11.0586 1.24219 11.3398L8.66016 18.7578C9.01172 19.1094 9.43359 19.25 9.85547 19.25C10.3125 19.25 10.7344 19.1094 11.0508 18.7578L18.2227 11.5859ZM17.0625 10.3906L9.85547 17.5625L2.4375 10.1445V2.9375H9.60938L17.0625 10.3906ZM5.8125 4.625C4.86328 4.625 4.125 5.39844 4.125 6.3125C4.125 7.26172 4.86328 8 5.8125 8C6.72656 8 7.5 7.26172 7.5 6.3125C7.5 5.39844 6.72656 4.625 5.8125 4.625Z" fill="#7F8794"/>
</svg>
