<svg width="32" height="32" viewBox="0 0 32 32" fill="none" xmlns="http://www.w3.org/2000/svg">
<path d="M23.8304 11.5268C23.2478 11.7779 22.615 11.9587 21.9621 12.029C22.635 11.6272 23.1473 10.9944 23.3884 10.2411C22.7656 10.6127 22.0625 10.8839 21.3292 11.0246C20.7366 10.3917 19.8929 10 18.9587 10C17.1607 10 15.7143 11.4565 15.7143 13.2444C15.7143 13.4955 15.7444 13.7467 15.7946 13.9877C13.1027 13.8471 10.702 12.5614 9.10491 10.5926C8.82366 11.0748 8.66295 11.6272 8.66295 12.2299C8.66295 13.3549 9.23549 14.3493 10.1094 14.9319C9.57701 14.9118 9.07478 14.7612 8.64286 14.5201C8.64286 14.5301 8.64286 14.5502 8.64286 14.5603C8.64286 16.1373 9.75781 17.4431 11.2444 17.7444C10.9732 17.8147 10.6819 17.8549 10.3906 17.8549C10.1797 17.8549 9.97879 17.8348 9.7779 17.8047C10.1897 19.0904 11.385 20.0246 12.8114 20.0547C11.6964 20.9286 10.3002 21.4408 8.78348 21.4408C8.51228 21.4408 8.26116 21.4308 8 21.4007C9.43638 22.3248 11.144 22.8571 12.9821 22.8571C18.9487 22.8571 22.2132 17.9152 22.2132 13.6261C22.2132 13.4855 22.2132 13.3449 22.2031 13.2042C22.8359 12.7422 23.3884 12.1696 23.8304 11.5268Z" fill="#55ADEF"/>
</svg>
