<svg width="32" height="32" viewBox="0 0 32 32" fill="none" xmlns="http://www.w3.org/2000/svg">
<path d="M24.1248 11.7075C24.1248 11.7075 23.9998 11.3504 23.223 11.4486L20.6515 11.4665C20.4551 11.4397 20.3123 11.52 20.3123 11.52C20.3123 11.52 20.1605 11.6004 20.089 11.7968C19.6694 12.8772 19.1337 13.8058 19.1337 13.8058C17.9908 15.7522 17.5265 15.8593 17.339 15.7343C16.9015 15.4575 17.0176 14.6093 17.0176 14.0022C17.0176 12.1093 17.3033 11.3236 16.4551 11.1183C16.1783 11.0558 15.973 11.0111 15.2498 11.0022C14.3301 10.9933 13.5533 11.0022 13.1158 11.2165C12.8212 11.3593 12.598 11.6808 12.7319 11.6986C12.9015 11.7254 13.2855 11.8058 13.4908 12.0825C13.4908 12.0825 13.714 12.4486 13.7498 13.2522C13.848 15.4754 13.3926 15.7522 13.3926 15.7522C13.0444 15.9397 12.4373 15.6272 11.5444 13.7879C11.5444 13.7879 11.0265 12.8772 10.6248 11.8772C10.5533 11.6897 10.4105 11.5915 10.4105 11.5915C10.4105 11.5915 10.2498 11.4665 10.0176 11.4308L7.57119 11.4486C7.19619 11.4486 7.06226 11.6183 7.06226 11.6183C7.06226 11.6183 6.92833 11.7611 7.05333 12.0558C8.96405 16.5468 11.1426 18.7968 11.1426 18.7968C11.1426 18.7968 13.1337 20.8772 15.3926 20.7343H16.4194C16.7319 20.7075 16.8926 20.5379 16.8926 20.5379C16.8926 20.5379 17.0355 20.3772 17.0265 20.0825C17.0087 18.7075 17.6515 18.5022 17.6515 18.5022C18.2765 18.3058 19.0801 19.8325 19.9373 20.4218C19.9373 20.4218 20.589 20.8683 21.0801 20.77L23.3658 20.7343C24.5712 20.7254 23.9998 19.7254 23.9998 19.7254C23.9551 19.645 23.6694 19.029 22.2944 17.7522C20.8658 16.4218 21.0533 16.6361 22.7855 14.3325C23.839 12.9308 24.2587 12.0736 24.1248 11.7075Z" fill="#43668A"/>
</svg>
