<svg width="24" height="14" viewBox="0 0 24 14" fill="none" xmlns="http://www.w3.org/2000/svg">
<path d="M22.6875 3.875H22.125C21.8086 3.875 21.5625 4.15625 21.5625 4.4375V4.89453C20.7891 4.29688 19.8047 3.875 18.75 3.875C16.2539 3.875 14.25 5.91406 14.25 8.375V9.5C14.25 11.9961 16.2539 14 18.75 14C19.8047 14 20.7891 13.6133 21.5625 13.0156V13.4375C21.5625 13.7539 21.8086 14 22.125 14H22.6875C22.9688 14 23.25 13.7539 23.25 13.4375V4.4375C23.25 4.15625 22.9688 3.875 22.6875 3.875ZM21.5625 9.5C21.5625 11.082 20.2969 12.3125 18.75 12.3125C17.168 12.3125 15.9375 11.082 15.9375 9.5V8.375C15.9375 6.82812 17.168 5.5625 18.75 5.5625C20.2969 5.5625 21.5625 6.82812 21.5625 8.375V9.5ZM8.20312 0.886719C8.13281 0.675781 7.88672 0.5 7.67578 0.5H6.16406C5.95312 0.5 5.70703 0.675781 5.63672 0.886719L0.785156 13.2617C0.75 13.2969 0.714844 13.4023 0.714844 13.4375C0.714844 13.7539 0.996094 14 1.27734 14H1.3125H1.91016C2.12109 14 2.33203 13.8594 2.4375 13.6484L3.84375 10.0625H9.99609L11.4023 13.6484C11.5078 13.8594 11.7188 14 11.9297 14H12.5625C12.8438 14 13.125 13.7539 13.125 13.4375C13.125 13.4023 13.0898 13.2969 13.0898 13.2617L8.20312 0.886719ZM4.51172 8.375L6.9375 2.25781L9.32812 8.375H4.51172Z" fill="#7F8794"/>
</svg>
