<svg width="24" height="17" viewBox="0 0 24 17" fill="none" xmlns="http://www.w3.org/2000/svg">
<path d="M22.6875 0.375H10.3125C9.99609 0.375 9.75 0.65625 9.75 0.9375V3.75C9.75 4.06641 9.99609 4.3125 10.3125 4.3125H10.875C11.1562 4.3125 11.4375 4.06641 11.4375 3.75V2.625H15.375V14.4375H13.6875C13.3711 14.4375 13.125 14.7188 13.125 15V15.5625C13.125 15.8789 13.3711 16.125 13.6875 16.125H19.3125C19.5938 16.125 19.875 15.8789 19.875 15.5625V15C19.875 14.7188 19.5938 14.4375 19.3125 14.4375H17.625V2.625H21.5625V3.75C21.5625 4.06641 21.8086 4.3125 22.125 4.3125H22.6875C22.9688 4.3125 23.25 4.06641 23.25 3.75V0.9375C23.25 0.65625 22.9688 0.375 22.6875 0.375ZM11.4375 7.125H1.3125C0.996094 7.125 0.75 7.40625 0.75 7.6875V9.9375C0.75 10.2539 0.996094 10.5 1.3125 10.5H1.875C2.15625 10.5 2.4375 10.2539 2.4375 9.9375V8.8125H5.25V14.4375H4.125C3.80859 14.4375 3.5625 14.7188 3.5625 15V15.5625C3.5625 15.8789 3.80859 16.125 4.125 16.125H8.625C8.90625 16.125 9.1875 15.8789 9.1875 15.5625V15C9.1875 14.7188 8.90625 14.4375 8.625 14.4375H7.5V8.8125H10.3125V9.9375C10.3125 10.2539 10.5586 10.5 10.875 10.5H11.4375C11.7188 10.5 12 10.2539 12 9.9375V7.6875C12 7.40625 11.7188 7.125 11.4375 7.125Z" fill="#7F8794"/>
</svg>
