<svg width="13" height="13" viewBox="0 0 13 13" fill="none" xmlns="http://www.w3.org/2000/svg">
<path d="M7.09099 11.1573C7.09099 10.9363 6.91422 10.7596 6.71534 10.7817L3.55546 10.8479L10.8254 3.57801L10.7591 6.73789C10.737 6.93676 10.9138 7.11354 11.1348 7.11354L11.9965 7.09144C12.1954 7.11354 12.3722 6.93676 12.3722 6.71579V1.23572C12.3722 1.01475 12.2175 0.860068 11.9965 0.860068H6.51647C6.2955 0.860068 6.11872 1.03685 6.14082 1.23572L6.11872 2.0975C6.11872 2.31848 6.2955 2.49525 6.49437 2.47315L9.65426 2.40686L2.38431 9.6768L2.4506 6.51692C2.4727 6.31805 2.29592 6.14127 2.07495 6.14127H1.23526C1.01429 6.14127 0.837514 6.31805 0.859611 6.51692L0.837514 12.0191C0.837514 12.2401 0.992193 12.3947 1.21316 12.3947L6.71534 12.3726C6.91422 12.3947 7.09099 12.218 7.09099 11.997V11.1573Z" fill="#7F8794"/>
</svg>
