<svg width="20" height="21" viewBox="0 0 20 21" fill="none" xmlns="http://www.w3.org/2000/svg">
<path d="M12.2188 6.47754L11.5938 7.10254C11.4688 7.25879 11.4688 7.47754 11.625 7.63379L14.125 10.04H3.375C3.15625 10.04 3 10.2275 3 10.415V11.29C3 11.5088 3.15625 11.665 3.375 11.665H14.125L11.625 14.1025C11.4688 14.2588 11.4688 14.4775 11.5938 14.6338L12.2188 15.2588C12.375 15.3838 12.5938 15.3838 12.75 15.2588L16.875 11.1338C17 10.9775 17 10.7588 16.875 10.6025L12.75 6.47754C12.5938 6.35254 12.375 6.35254 12.2188 6.47754Z" fill="#7F8794"/>
</svg>
