<svg width="20" height="21" viewBox="0 0 20 21" fill="none" xmlns="http://www.w3.org/2000/svg">
<path d="M7.75 15.2588L8.375 14.6338C8.5 14.4775 8.5 14.2588 8.34375 14.1025L5.84375 11.665H16.625C16.8125 11.665 17 11.5088 17 11.29V10.415C17 10.2275 16.8125 10.04 16.625 10.04H5.84375L8.34375 7.63379C8.5 7.47754 8.5 7.25879 8.375 7.10254L7.75 6.47754C7.59375 6.35254 7.375 6.35254 7.21875 6.47754L3.09375 10.6025C2.96875 10.7588 2.96875 10.9775 3.09375 11.1338L7.21875 15.2588C7.375 15.3838 7.59375 15.3838 7.75 15.2588Z" fill="#7F8794"/>
</svg>
