<svg width="22" height="20" viewBox="0 0 22 20" fill="none" xmlns="http://www.w3.org/2000/svg">
<path d="M19.4023 2.375H2.5625C1.61328 2.375 0.875 3.14844 0.875 4.0625V16.4375C0.875 17.3867 1.61328 18.125 2.5625 18.125H19.4023C20.3516 18.125 21.125 17.3867 21.125 16.4375V4.0625C21.125 3.14844 20.3516 2.375 19.4023 2.375ZM19.1914 16.4375H2.77344C2.63281 16.4375 2.5625 16.3672 2.5625 16.2266V4.27344C2.5625 4.16797 2.63281 4.0625 2.77344 4.0625H19.1914C19.332 4.0625 19.4023 4.16797 19.4023 4.27344V16.2266C19.4023 16.3672 19.332 16.4375 19.1914 16.4375ZM7.625 14.0469C7.625 13.8359 7.41406 13.625 7.20312 13.625H4.67188C4.42578 13.625 4.25 13.8359 4.25 14.0469V14.3281C4.25 14.5742 4.42578 14.75 4.67188 14.75H7.20312C7.41406 14.75 7.625 14.5742 7.625 14.3281V14.0469ZM14.375 14.0469C14.375 13.8359 14.1641 13.625 13.9531 13.625H9.17188C8.92578 13.625 8.75 13.8359 8.75 14.0469V14.3281C8.75 14.5742 8.92578 14.75 9.17188 14.75H13.9531C14.1641 14.75 14.375 14.5742 14.375 14.3281V14.0469ZM10.0156 12.5C10.2266 12.5 10.4375 12.3242 10.4375 12.0781V10.6719C10.4375 10.4609 10.2266 10.25 10.0156 10.25H8.04688C7.80078 10.25 7.625 10.4609 7.625 10.6719V12.0781C7.625 12.3242 7.80078 12.5 8.04688 12.5H10.0156ZM11 12.0781C11 12.3242 11.1758 12.5 11.4219 12.5H13.3906C13.6016 12.5 13.8125 12.3242 13.8125 12.0781V10.6719C13.8125 10.4609 13.6016 10.25 13.3906 10.25H11.4219C11.1758 10.25 11 10.4609 11 10.6719V12.0781ZM4.25 12.0781C4.25 12.3242 4.42578 12.5 4.67188 12.5H6.64062C6.85156 12.5 7.0625 12.3242 7.0625 12.0781V10.6719C7.0625 10.4609 6.85156 10.25 6.64062 10.25H4.67188C4.42578 10.25 4.25 10.4609 4.25 10.6719V12.0781ZM17.75 10.6719C17.75 10.4609 17.5391 10.25 17.3281 10.25H14.7969C14.5508 10.25 14.375 10.4609 14.375 10.6719V12.0781C14.375 12.3242 14.5508 12.5 14.7969 12.5H17.3281C17.5391 12.5 17.75 12.3242 17.75 12.0781V10.6719ZM17.75 6.03125C17.75 5.57422 17.3633 5.1875 16.9062 5.1875H14.0938C13.6016 5.1875 13.25 5.57422 13.25 6.03125V7.71875C13.25 8.21094 13.6016 8.5625 14.0938 8.5625H16.9062C17.3633 8.5625 17.75 8.21094 17.75 7.71875V6.03125Z" fill="#7F8794"/>
</svg>
