<svg width="4" height="15" viewBox="0 0 4 15" fill="none" xmlns="http://www.w3.org/2000/svg">
<path d="M2 5.5625C1.05078 5.5625 0.3125 6.33594 0.3125 7.25C0.3125 8.19922 1.05078 8.9375 2 8.9375C2.91406 8.9375 3.6875 8.19922 3.6875 7.25C3.6875 6.33594 2.91406 5.5625 2 5.5625ZM0.3125 1.90625C0.3125 2.85547 1.05078 3.59375 2 3.59375C2.91406 3.59375 3.6875 2.85547 3.6875 1.90625C3.6875 0.992188 2.91406 0.21875 2 0.21875C1.05078 0.21875 0.3125 0.992188 0.3125 1.90625ZM0.3125 12.5938C0.3125 13.543 1.05078 14.2812 2 14.2812C2.91406 14.2812 3.6875 13.543 3.6875 12.5938C3.6875 11.6797 2.91406 10.9062 2 10.9062C1.05078 10.9062 0.3125 11.6797 0.3125 12.5938Z" fill="#7F8794"/>
</svg>
