<svg width="20" height="20" viewBox="0 0 20 20" fill="none" xmlns="http://www.w3.org/2000/svg">
<path d="M18.332 3.25391L16.9961 1.91797C16.5742 1.49609 15.9766 1.25 15.4141 1.25C14.8516 1.25 14.2539 1.49609 13.832 1.91797L11.1953 4.55469L10 5.75L1.42188 14.3281L1 18.3359C0.929688 18.8281 1.31641 19.25 1.80859 19.25C1.84375 19.25 1.87891 19.25 1.91406 19.25L5.92188 18.8281L14.5 10.25L15.6953 9.05469L18.332 6.41797C19.2109 5.53906 19.2109 4.13281 18.332 3.25391ZM5.14844 17.2109L2.79297 17.457L3.03906 15.1016L11.1602 6.94531L12.25 5.85547L14.3945 8L13.3047 9.08984L5.14844 17.2109ZM17.1367 5.22266L15.5898 6.80469L13.4453 4.66016L15.0273 3.11328C15.168 2.97266 15.3438 2.9375 15.4141 2.9375C15.4844 2.9375 15.6602 2.97266 15.8008 3.11328L17.1367 4.44922C17.3477 4.66016 17.3477 5.01172 17.1367 5.22266Z" fill="#7F8794"/>
</svg>
