<svg width="19" height="19" viewBox="0 0 19 19" fill="none" xmlns="http://www.w3.org/2000/svg">
<path d="M10.7031 8.58203V4.50391H13.375C13.7266 4.50391 13.9375 4.04688 13.6562 3.76562L10.2812 0.390625C10.1055 0.214844 9.85938 0.214844 9.68359 0.390625L6.30859 3.76562C6.02734 4.04688 6.23828 4.50391 6.58984 4.50391H9.29688V8.58203H5.21875V5.875C5.21875 5.52344 4.76172 5.3125 4.48047 5.59375L1.10547 8.96875C0.929688 9.14453 0.929688 9.39062 1.10547 9.56641L4.48047 12.9414C4.76172 13.2227 5.21875 13.0117 5.21875 12.6602V9.98828H9.29688V14.0312H6.58984C6.23828 14.0312 6.02734 14.4883 6.30859 14.7695L9.68359 18.1445C9.85938 18.3203 10.1055 18.3203 10.2812 18.1445L13.6562 14.7695C13.9375 14.4883 13.7266 14.0312 13.375 14.0312H10.668V9.98828H14.7461V12.6602C14.7461 13.0117 15.2031 13.2227 15.4844 12.9414L18.8594 9.56641C19.0352 9.39062 19.0352 9.14453 18.8594 8.96875L15.4844 5.59375C15.2031 5.3125 14.7461 5.52344 14.7461 5.875V8.58203H10.7031Z" fill="#7F8794"/>
</svg>
