<svg width="16" height="16" viewBox="0 0 16 16" fill="none" xmlns="http://www.w3.org/2000/svg">
<path d="M14.3438 6.03125C14.3438 6.03125 14.3125 6.03125 14.2812 6.03125C12.75 6.09375 9.90625 6.4375 8 7.5C6.0625 6.4375 3.21875 6.09375 1.6875 6.03125C1.65625 6.03125 1.625 6.03125 1.625 6.03125C0.96875 6.03125 0 6.46875 0 7.59375V13.1562C0 13.9688 0.65625 14.6562 1.5 14.7188C2.5625 14.7812 5.25 15 7.03125 15.875C7.1875 15.9688 7.375 16 7.5625 16H8.40625C8.59375 16 8.78125 15.9688 8.9375 15.875C10.7188 15 13.4062 14.7812 14.4688 14.7188C15.3125 14.6562 16 13.9688 16 13.1562V7.59375C16 6.46875 15 6.03125 14.3438 6.03125ZM7.25 14.3438C5.34375 13.5312 2.90625 13.2812 1.5625 13.2188C1.53125 13.2188 1.5 13.1875 1.5 13.1562L1.46875 7.5625C1.5 7.5625 1.5625 7.53125 1.59375 7.5C2.71875 7.59375 5.5 7.84375 7.25 8.8125V14.3438ZM14.5 13.1562C14.5 13.1875 14.4375 13.2188 14.4062 13.2188C13.0625 13.2812 10.625 13.5312 8.75 14.3438V8.8125C10.4688 7.84375 13.25 7.59375 14.3438 7.53125C14.4062 7.53125 14.4688 7.5625 14.5 7.59375V13.1562ZM8 6C9.65625 6 11 4.6875 11 3C11 1.34375 9.65625 0 8 0C6.3125 0 5 1.34375 5 3C5 4.65625 6.3125 6 8 6ZM8 1.5C8.8125 1.5 9.5 2.1875 9.5 3C9.5 3.84375 8.8125 4.5 8 4.5C7.15625 4.5 6.5 3.84375 6.5 3C6.5 2.1875 7.15625 1.5 8 1.5Z" fill="#7F8794"/>
</svg>
