<svg width="19" height="19" viewBox="0 0 19 19" fill="none" xmlns="http://www.w3.org/2000/svg">
<path d="M18.332 2.25391L16.9961 0.917969C16.5742 0.496094 15.9766 0.25 15.4141 0.25C14.8516 0.25 14.2539 0.496094 13.832 0.917969L11.1953 3.55469L10 4.75L1.42188 13.3281L1 17.3359C0.929688 17.8281 1.31641 18.25 1.80859 18.25C1.84375 18.25 1.87891 18.25 1.91406 18.25L5.92188 17.8281L14.5 9.25L15.6953 8.05469L18.332 5.41797C19.2109 4.53906 19.2109 3.13281 18.332 2.25391ZM5.14844 16.2109L2.79297 16.457L3.03906 14.1016L11.1602 5.94531L12.25 4.85547L14.3945 7L13.3047 8.08984L5.14844 16.2109ZM17.1367 4.22266L15.5898 5.80469L13.4453 3.66016L15.0273 2.11328C15.168 1.97266 15.3438 1.9375 15.4141 1.9375C15.4844 1.9375 15.6602 1.97266 15.8008 2.11328L17.1367 3.44922C17.3477 3.66016 17.3477 4.01172 17.1367 4.22266Z" fill="#242D33"/>
</svg>
