<svg width="32" height="32" viewBox="0 0 32 32" fill="none" xmlns="http://www.w3.org/2000/svg">
<path fill-rule="evenodd" clip-rule="evenodd" d="M0 16C0 7.16344 7.16344 0 16 0C24.8366 0 32 7.16344 32 16C32 24.8366 24.8366 32 16 32C7.16344 32 0 24.8366 0 16Z" fill="#168DE2"/>
<path fill-rule="evenodd" clip-rule="evenodd" d="M19.3154 15.9123C19.2061 13.7893 17.6307 12.5128 15.7277 12.5128H15.656C13.4601 12.5128 12.2422 14.2396 12.2422 16.2012C12.2422 18.3978 13.7157 19.7851 15.6475 19.7851C17.8015 19.7851 19.218 18.2073 19.3204 16.3412L19.3154 15.9123ZM15.6666 10.6136C17.1338 10.6136 18.5132 11.2621 19.5263 12.2774V12.2814C19.5263 11.7937 19.8543 11.4263 20.31 11.4263L20.425 11.4256C21.1378 11.4256 21.2839 12.1 21.2839 12.3135L21.2874 19.8941C21.2372 20.3899 21.7996 20.646 22.1115 20.3281C23.3287 19.0771 24.7848 13.8975 21.3548 10.8962C18.1579 8.09825 13.8688 8.55949 11.5876 10.1317C9.16257 11.8043 7.61082 15.5055 9.11816 18.982C10.7613 22.7748 15.4632 23.9052 18.2576 22.7776C19.6726 22.2063 20.3264 24.1194 18.8566 24.7441C16.636 25.6906 10.4554 25.5952 7.56818 20.5938C5.61751 17.2165 5.72147 11.2742 10.895 8.19565C14.8528 5.84077 20.0708 6.49301 23.2172 9.77919C26.5061 13.2142 26.3144 19.6466 23.1061 22.1488C21.6528 23.2845 19.494 22.1786 19.5078 20.5229L19.4927 19.9814C18.4807 20.9859 17.1338 21.5718 15.6666 21.5718C12.7672 21.5718 10.2162 19.0206 10.2162 16.1222C10.2162 13.1941 12.7672 10.6136 15.6666 10.6136V10.6136Z" fill="#FFA930"/>
</svg>
