<svg width="32" height="32" viewBox="0 0 32 32" fill="none" xmlns="http://www.w3.org/2000/svg">
<rect x="0.5" y="0.5" width="31" height="31" rx="15.5" fill="white" stroke="#D0D9DD"/>
<path d="M16.1143 17.2083L13.3955 23.3333H11.3955L14.3955 16.7708C12.833 15.9791 12.0518 14.5103 12.0518 12.3645C12.0518 10.7603 12.4893 9.52075 13.3643 8.64575C14.2601 7.77075 15.3747 7.33325 16.708 7.33325H19.2705V23.3333H17.5518V17.2083H16.1143ZM17.5518 8.77075H16.6455C15.8538 8.77075 15.1976 9.06242 14.6768 9.64575C14.1559 10.2291 13.8955 11.1353 13.8955 12.3645C13.8955 14.6353 14.8122 15.7708 16.6455 15.7708H17.5518V8.77075Z" fill="#EA1B4D"/>
</svg>
