<svg width="22" height="19" viewBox="0 0 22 19" fill="none" xmlns="http://www.w3.org/2000/svg">
<path d="M20.2461 2.5H5.9375L5.62109 0.953125C5.55078 0.566406 5.19922 0.25 4.8125 0.25H1.29688C1.05078 0.25 0.875 0.460938 0.875 0.671875V1.51562C0.875 1.76172 1.05078 1.9375 1.29688 1.9375H4.10938L6.53516 14.4531C6.14844 14.875 5.9375 15.4023 5.9375 16C5.9375 17.2656 6.92188 18.25 8.1875 18.25C9.41797 18.25 10.4375 17.2656 10.4375 16C10.4375 15.6836 10.2969 15.1914 10.1211 14.875H15.2188C15.043 15.1914 14.9375 15.6836 14.9375 16C14.9375 17.2656 15.9219 18.25 17.1875 18.25C18.418 18.25 19.4375 17.2656 19.4375 16C19.4375 15.3672 19.1562 14.8047 18.7344 14.3828L18.7695 14.2422C18.875 13.7148 18.4883 13.1875 17.9258 13.1875H8.01172L7.69531 11.5H18.6641C19.0859 11.5 19.4023 11.2539 19.5078 10.8672L21.0898 3.55469C21.1953 3.02734 20.8086 2.5 20.2461 2.5ZM8.1875 16.8438C7.69531 16.8438 7.34375 16.4922 7.34375 16C7.34375 15.543 7.69531 15.1562 8.1875 15.1562C8.64453 15.1562 9.03125 15.543 9.03125 16C9.03125 16.4922 8.64453 16.8438 8.1875 16.8438ZM17.1875 16.8438C16.6953 16.8438 16.3438 16.4922 16.3438 16C16.3438 15.543 16.6953 15.1562 17.1875 15.1562C17.6445 15.1562 18.0312 15.543 18.0312 16C18.0312 16.4922 17.6445 16.8438 17.1875 16.8438ZM17.9961 9.8125H7.34375L6.25391 4.1875H19.2266L17.9961 9.8125Z" fill="#282C2F"/>
</svg>
