<svg width="20" height="20" viewBox="0 0 20 20" fill="none" xmlns="http://www.w3.org/2000/svg">
<path d="M10.5625 8.5625C11.793 8.5625 12.8125 7.57812 12.8125 6.3125C12.8125 5.08203 11.793 4.0625 10.5625 4.0625C9.29688 4.0625 8.3125 5.08203 8.3125 6.3125C8.3125 7.57812 9.29688 8.5625 10.5625 8.5625ZM17.875 14.75V1.8125C17.875 1.53125 17.5938 1.25 17.3125 1.25H4.9375C3.35547 1.25 2.125 2.51562 2.125 4.0625V16.4375C2.125 18.0195 3.35547 19.25 4.9375 19.25H17.3125C17.5938 19.25 17.875 19.0039 17.875 18.6875V18.125C17.875 17.8789 17.6641 17.6328 17.418 17.5977C17.2422 17.1406 17.2422 15.7695 17.418 15.3125C17.6641 15.2773 17.875 15.0312 17.875 14.75ZM15.9766 17.5625H4.9375C4.30469 17.5625 3.8125 17.0703 3.8125 16.4375C3.8125 15.8398 4.30469 15.3125 4.9375 15.3125H15.9766C15.8711 15.9453 15.8711 16.9648 15.9766 17.5625ZM16.1875 13.625H4.9375H4.90234C4.58594 13.625 4.09375 13.7656 3.8125 13.8711V4.0625C3.8125 3.46484 4.30469 2.9375 4.9375 2.9375H16.1875V13.625ZM7.1875 12.5H13.9375C14.2188 12.5 14.5 12.2539 14.5 11.9375V11.1641C14.5 10.0391 13.4102 9.125 12.1094 9.125H11.9336C11.582 9.30078 10.9492 9.40625 10.5625 9.40625C10.1406 9.40625 9.50781 9.30078 9.15625 9.125H8.98047C7.67969 9.125 6.58984 10.0391 6.58984 11.1641V11.9375C6.58984 12.2539 6.87109 12.5 7.1875 12.5Z" fill="#242D33"/>
</svg>
