<svg width="18" height="19" viewBox="0 0 18 19" fill="none" xmlns="http://www.w3.org/2000/svg">
<path d="M17.332 3.625L14.625 0.917969C14.2031 0.496094 13.6406 0.25 13.0781 0.25C12.5156 0.25 11.9531 0.496094 11.5312 0.917969L8.29688 4.15234L4.78125 5.13672C4.14844 5.3125 3.48047 5.98047 3.26953 6.61328L0 16.4219L1.82812 18.25L11.6367 14.9805C12.2695 14.7695 12.9375 14.1016 13.1133 13.4688L14.0977 9.95312L17.332 6.71875C18.2109 5.83984 18.2109 4.46875 17.332 3.625ZM11.4961 13.0117C11.4258 13.1875 11.2852 13.3281 11.1094 13.3984L2.91797 16.1055L6.57422 12.4844C6.78516 12.5898 7.03125 12.625 7.3125 12.625C8.22656 12.625 9 11.8867 9 10.9375C9 10.0234 8.22656 9.25 7.3125 9.25C6.36328 9.25 5.625 10.0234 5.625 10.9375C5.625 11.2188 5.66016 11.4648 5.76562 11.6758L2.14453 15.332L4.85156 7.14062C4.92188 6.96484 5.0625 6.82422 5.23828 6.75391L8.75391 5.76953H8.78906L12.4805 9.46094V9.49609L11.4961 13.0117ZM16.1367 5.52344L13.5352 8.125L10.125 4.71484L12.7266 2.11328C12.832 2.00781 13.1484 1.83203 13.4297 2.11328L16.1367 4.82031C16.3477 4.99609 16.3477 5.3125 16.1367 5.52344Z" fill="#242D33"/>
</svg>
