<svg width="24" height="20" viewBox="0 0 24 20" fill="none" xmlns="http://www.w3.org/2000/svg">
<path d="M8.625 11.375C11.4023 11.375 13.6875 9.125 13.6875 6.3125C13.6875 3.53516 11.4023 1.25 8.625 1.25C5.8125 1.25 3.5625 3.53516 3.5625 6.3125C3.5625 9.125 5.8125 11.375 8.625 11.375ZM8.625 2.9375C10.4531 2.9375 12 4.48438 12 6.3125C12 8.17578 10.4531 9.6875 8.625 9.6875C6.76172 9.6875 5.25 8.17578 5.25 6.3125C5.25 4.48438 6.76172 2.9375 8.625 2.9375ZM11.7539 11.9375C10.7344 11.9375 10.2773 12.5 8.625 12.5C6.9375 12.5 6.48047 11.9375 5.46094 11.9375C2.85938 11.9375 0.75 14.082 0.75 16.6836V17.5625C0.75 18.5117 1.48828 19.25 2.4375 19.25H14.8125C15.7266 19.25 16.5 18.5117 16.5 17.5625V16.6836C16.5 14.082 14.3555 11.9375 11.7539 11.9375ZM14.8125 17.5625H2.4375V16.6836C2.4375 14.9961 3.77344 13.625 5.46094 13.625C5.98828 13.625 6.79688 14.1875 8.625 14.1875C10.418 14.1875 11.2266 13.625 11.7539 13.625C13.4414 13.625 14.8125 14.9961 14.8125 16.6836V17.5625ZM22.6875 8.84375H20.1562V6.3125C20.1562 6.03125 19.875 5.75 19.5938 5.75H19.0312C18.7148 5.75 18.4688 6.03125 18.4688 6.3125V8.84375H15.9375C15.6211 8.84375 15.375 9.125 15.375 9.40625V9.96875C15.375 10.2852 15.6211 10.5312 15.9375 10.5312H18.4688V13.0625C18.4688 13.3789 18.7148 13.625 19.0312 13.625H19.5938C19.875 13.625 20.1562 13.3789 20.1562 13.0625V10.5312H22.6875C22.9688 10.5312 23.25 10.2852 23.25 9.96875V9.40625C23.25 9.125 22.9688 8.84375 22.6875 8.84375Z" fill="#242D33"/>
</svg>
