<svg width="20" height="20" viewBox="0 0 20 20" fill="none" xmlns="http://www.w3.org/2000/svg">
<path d="M16.75 5.1875V4.625C16.75 3.39453 15.7305 2.375 14.5 2.375H4.375C2.47656 2.375 1 3.88672 1 5.75V14.75C1 16.6484 2.47656 18.125 4.375 18.125H16.75C17.9805 18.125 19 17.1406 19 15.875V7.4375C19 6.20703 17.9805 5.1875 16.75 5.1875ZM17.3125 15.875C17.3125 16.1914 17.0312 16.4375 16.75 16.4375H4.375C3.42578 16.4375 2.6875 15.6992 2.6875 14.75V5.75C2.6875 4.83594 3.42578 4.0625 4.375 4.0625H14.5C14.7812 4.0625 15.0625 4.34375 15.0625 4.625V5.75H4.9375C4.62109 5.75 4.375 6.03125 4.375 6.3125C4.375 6.62891 4.62109 6.875 4.9375 6.875H16.75C17.0312 6.875 17.3125 7.15625 17.3125 7.4375V15.875ZM14.5 10.25C13.8672 10.25 13.375 10.7773 13.375 11.375C13.375 12.0078 13.8672 12.5 14.5 12.5C15.0977 12.5 15.625 12.0078 15.625 11.375C15.625 10.7773 15.0977 10.25 14.5 10.25Z" fill="#242D33"/>
</svg>
