<svg width="20" height="20" viewBox="0 0 20 20" fill="none" xmlns="http://www.w3.org/2000/svg">
<path d="M10 14.875C10.4688 14.875 10.875 14.5 10.875 14V12C10.875 11.5312 10.4688 11.125 10 11.125C9.5 11.125 9.125 11.5312 9.125 12V14C9.125 14.5 9.5 14.875 10 14.875ZM17 9.5C17 8.6875 16.3125 8 15.5 8H14.5V6.5625C14.5 4.0625 12.5 2.03125 10 2C7.5 2 5.5 4.03125 5.5 6.5V8H4.5C3.65625 8 3 8.6875 3 9.5V16.5C3 17.3438 3.65625 18 4.5 18H15.5C16.3125 18 17 17.3438 17 16.5V9.5ZM7 8V6.5C7 4.875 8.34375 3.5 10 3.5C11.625 3.5 13 4.875 13 6.5V8H7ZM15.5 9.5V16.5H4.5V9.5H15.5Z" fill="#7F8794"/>
</svg>
