<svg width="20" height="20" viewBox="0 0 20 20" fill="none" xmlns="http://www.w3.org/2000/svg">
<path d="M11.5469 15.875H12.3906C12.6016 15.875 12.8125 15.6992 12.8125 15.4531V7.85938C12.8125 7.64844 12.6016 7.4375 12.3906 7.4375H11.5469C11.3008 7.4375 11.125 7.64844 11.125 7.85938V15.4531C11.125 15.6992 11.3008 15.875 11.5469 15.875ZM17.3125 4.0625H14.3945L13.1992 2.09375C12.918 1.63672 12.2852 1.25 11.7578 1.25H8.20703C7.67969 1.25 7.04688 1.63672 6.76562 2.09375L5.57031 4.0625H2.6875C2.37109 4.0625 2.125 4.34375 2.125 4.625V5.1875C2.125 5.50391 2.37109 5.75 2.6875 5.75H3.25V17.5625C3.25 18.5117 3.98828 19.25 4.9375 19.25H15.0625C15.9766 19.25 16.75 18.5117 16.75 17.5625V5.75H17.3125C17.5938 5.75 17.875 5.50391 17.875 5.1875V4.625C17.875 4.34375 17.5938 4.0625 17.3125 4.0625ZM8.13672 3.04297C8.17188 3.00781 8.27734 2.9375 8.3125 2.9375H8.34766H11.6523C11.6875 2.9375 11.793 3.00781 11.8281 3.04297L12.4258 4.0625H7.53906L8.13672 3.04297ZM15.0625 17.5625H4.9375V5.75H15.0625V17.5625ZM7.60938 15.875H8.45312C8.66406 15.875 8.875 15.6992 8.875 15.4531V7.85938C8.875 7.64844 8.66406 7.4375 8.45312 7.4375H7.60938C7.36328 7.4375 7.1875 7.64844 7.1875 7.85938V15.4531C7.1875 15.6992 7.36328 15.875 7.60938 15.875Z" fill="#7F8794"/>
</svg>
