<svg width="32" height="21" viewBox="0 0 32 21" fill="none" xmlns="http://www.w3.org/2000/svg">
<path d="M27.0173 11.6875C27.0173 11.6875 26.9236 11.2589 26.5084 9.20982L26.3477 8.47321C26.2405 8.79464 26.0396 9.30357 26.053 9.29018C25.3566 11.192 25.1691 11.6875 25.1691 11.6875C25.6111 11.6875 26.6691 11.6875 27.0173 11.6875ZM7.67801 10.817C6.7673 8.28571 4.74498 6.94643 2.28069 6.31696L2.30748 6.14286H5.89676C6.37891 6.14286 6.79409 6.31696 6.90123 6.86607L7.67801 10.817ZM10.0753 6.14286H12.4325L8.93694 14.7277H6.59319L4.78516 7.89732C6.07087 8.41964 7.20926 9.57143 7.67801 10.817L7.90569 12.0089L10.0753 6.14286ZM11.9369 14.7411L13.3298 6.14286H15.553L14.1602 14.7411H11.9369ZM22.2227 6.35714L21.9146 8.21875L21.7137 8.11161C21.3119 7.92411 20.7762 7.77678 20.053 7.79018C19.1825 7.79018 18.7807 8.16518 18.7807 8.52678C18.7807 8.92857 19.2494 9.20982 20.0262 9.59821C21.2986 10.2143 21.9012 10.9509 21.9012 11.9286C21.8744 13.7098 20.3611 14.875 18.0307 14.8616C17.0262 14.8616 16.0753 14.6473 15.553 14.4062L15.8611 12.4777L16.1557 12.625C16.8655 12.9598 17.3477 13.067 18.245 13.067C18.8744 13.067 19.5709 12.8125 19.5709 12.2366C19.5709 11.8616 19.2896 11.5804 18.4191 11.1652C17.5753 10.75 16.4637 10.067 16.4771 8.83482C16.4905 7.16071 18.0307 5.99553 20.2271 5.99553C21.0843 5.99553 21.7807 6.18303 22.2227 6.35714ZM27.9146 6.14286L29.7093 14.7411H27.6468C27.4459 13.75 27.3789 13.4554 27.3789 13.4554C27.0575 13.4554 24.7941 13.4554 24.5396 13.4554C24.5396 13.4554 24.4459 13.683 24.0709 14.7411H21.7405L25.0352 6.86607C25.2628 6.30357 25.6646 6.14286 26.2003 6.14286H27.9146ZM31.4236 1.85714C31.4236 0.919642 30.6468 0.142856 29.7093 0.142856H2.28069C1.34319 0.142856 0.566406 0.919642 0.566406 1.85714V19C0.566406 19.9375 1.34319 20.7143 2.28069 20.7143H29.7093C30.6468 20.7143 31.4236 19.9375 31.4236 19V1.85714Z" fill="#282C2F"/>
</svg>
