<svg width="22" height="21" viewBox="0 0 22 21" fill="none" xmlns="http://www.w3.org/2000/svg">
<path d="M21.0625 9.1875H12.3125V0.4375C12.3125 0.21875 12.0938 0 11.875 0H10.125C9.85156 0 9.6875 0.21875 9.6875 0.4375V9.1875H0.9375C0.664062 9.1875 0.5 9.40625 0.5 9.625V11.375C0.5 11.6484 0.664062 11.8125 0.9375 11.8125H9.6875V20.5625C9.6875 20.8359 9.85156 21 10.125 21H11.875C12.0938 21 12.3125 20.8359 12.3125 20.5625V11.8125H21.0625C21.2812 11.8125 21.5 11.6484 21.5 11.375V9.625C21.5 9.40625 21.2812 9.1875 21.0625 9.1875Z" fill="white"/>
</svg>
