<svg width="32" height="32" viewBox="0 0 32 32" fill="none" xmlns="http://www.w3.org/2000/svg">
<path d="M19.7188 16H17.375V23H14.25V16H11.7188V13.0938H14.25V10.9062C14.25 10.0729 14.4062 9.36458 14.7188 8.78125C15.0312 8.19792 15.4688 7.76042 16.0312 7.46875C16.6146 7.15625 17.2812 7 18.0312 7C18.3646 7 18.7188 7.02083 19.0938 7.0625C19.4688 7.08333 19.7604 7.11458 19.9688 7.15625L20.2812 7.1875V9.65625H19.0312C18.4479 9.65625 18.0208 9.8125 17.75 10.125C17.5 10.4167 17.375 10.7812 17.375 11.2188V13.0938H20.1562L19.7188 16Z" fill="#3B5998"/>
</svg>
