<svg width="42" height="28" viewBox="0 0 42 28" fill="none" xmlns="http://www.w3.org/2000/svg">
<path d="M19.9821 3.80357C18.4583 2.79167 16.7857 2.28572 14.9643 2.28572C13.7381 2.28572 12.5595 2.52976 11.4285 3.01786C10.3095 3.49405 9.34523 4.13691 8.53572 4.94643C7.7262 5.75595 7.07738 6.72024 6.58928 7.83929C6.11309 8.95834 5.875 10.131 5.875 11.3572C5.875 12.5953 6.11309 13.7739 6.58928 14.8929C7.07738 16.0119 7.7262 16.9762 8.53572 17.7858C9.34523 18.5953 10.3095 19.2441 11.4285 19.7322C12.5476 20.2084 13.7262 20.4465 14.9643 20.4465C16.7857 20.4465 18.4583 19.9405 19.9821 18.9286C18.4226 17.6548 17.3631 16.0774 16.8035 14.1965C16.244 12.3036 16.244 10.4167 16.8035 8.53572C17.375 6.65476 18.4345 5.07738 19.9821 3.80357ZM20.5714 4.23214C19.0714 5.41072 18.0476 6.89881 17.5 8.69643C16.9524 10.4822 16.9464 12.2679 17.4821 14.0536C18.0297 15.8393 19.0595 17.3215 20.5714 18.5C22.0833 17.3215 23.1071 15.8393 23.6428 14.0536C24.1905 12.2679 24.1905 10.4822 23.6428 8.69643C23.0952 6.89881 22.0714 5.41072 20.5714 4.23214ZM21.1607 3.80357C22.7083 5.07738 23.7619 6.66072 24.3214 8.55357C24.8928 10.4346 24.8988 12.3215 24.3393 14.2143C23.7797 16.0953 22.7202 17.6667 21.1607 18.9286C22.6845 19.9405 24.3571 20.4465 26.1785 20.4465C27.4166 20.4465 28.5952 20.2084 29.7143 19.7322C30.8333 19.2441 31.7976 18.5953 32.6071 17.7858C33.4166 16.9762 34.0595 16.0119 34.5357 14.8929C35.0238 13.7739 35.2678 12.5953 35.2678 11.3572C35.2678 10.131 35.0238 8.95834 34.5357 7.83929C34.0595 6.72024 33.4166 5.75595 32.6071 4.94643C31.7976 4.13691 30.8274 3.49405 29.6964 3.01786C28.5774 2.52976 27.4047 2.28572 26.1785 2.28572C24.3571 2.28572 22.6845 2.79167 21.1607 3.80357ZM34.3928 16.6965H34.5178V16.6429H34.2143V16.6965H34.3393V17H34.3928V16.6965ZM34.9107 17H34.9821V16.6429H34.8928L34.7857 16.875L34.6785 16.6429H34.5893V17H34.6428V16.7322L34.75 16.9643H34.8214L34.9107 16.7322V17ZM34.7678 24.8572V24.8929H34.7321H34.6785V24.8393H34.7321H34.7678V24.8572ZM34.7678 25.0179H34.8214L34.75 24.9286C34.7619 24.9286 34.7738 24.9286 34.7857 24.9286L34.8035 24.9108C34.8155 24.8989 34.8214 24.881 34.8214 24.8572C34.8214 24.8334 34.8155 24.8155 34.8035 24.8036L34.7857 24.7858C34.7619 24.7858 34.744 24.7858 34.7321 24.7858H34.625V25.0179H34.6785V24.9286H34.6964L34.7678 25.0179ZM12.4285 24.3572C12.2976 24.2143 12.2321 24.0298 12.2321 23.8036C12.2321 23.5774 12.2976 23.3929 12.4285 23.25C12.5595 23.1072 12.7381 23.0358 12.9643 23.0358C13.1785 23.0358 13.3512 23.1131 13.4821 23.2679C13.6131 23.4108 13.6785 23.5893 13.6785 23.8036C13.6785 24.0298 13.6131 24.2143 13.4821 24.3572C13.3512 24.5 13.1785 24.5715 12.9643 24.5715C12.7381 24.5715 12.5595 24.5 12.4285 24.3572ZM20.0535 23.5893C20.1131 23.2084 20.3214 23.0179 20.6785 23.0179C21.0357 23.0179 21.244 23.2084 21.3035 23.5893H20.0535ZM27.2321 24.3572C27.1012 24.2143 27.0357 24.0298 27.0357 23.8036C27.0357 23.5774 27.1012 23.3929 27.2321 23.25C27.3631 23.1072 27.5357 23.0358 27.75 23.0358C27.9643 23.0358 28.1369 23.1131 28.2678 23.2679C28.4107 23.4108 28.4821 23.5893 28.4821 23.8036C28.4821 24.0298 28.4166 24.2143 28.2857 24.3572C28.1547 24.5 27.9762 24.5715 27.75 24.5715C27.5357 24.5715 27.3631 24.5 27.2321 24.3572ZM32.0893 24.3572C31.9583 24.2024 31.8928 24.0179 31.8928 23.8036C31.8928 23.5893 31.9583 23.4108 32.0893 23.2679C32.2321 23.1131 32.4107 23.0358 32.625 23.0358C32.8393 23.0358 33.0119 23.1131 33.1428 23.2679C33.2857 23.4108 33.3571 23.5893 33.3571 23.8036C33.3571 24.0298 33.2857 24.2143 33.1428 24.3572C33.0119 24.5 32.8393 24.5715 32.625 24.5715C32.4107 24.5715 32.2321 24.5 32.0893 24.3572ZM34.7143 25.0893C34.6905 25.0893 34.6666 25.0834 34.6428 25.0715C34.6309 25.0715 34.6131 25.0596 34.5893 25.0358C34.5655 25.0119 34.5535 24.9941 34.5535 24.9822C34.5416 24.9584 34.5357 24.9346 34.5357 24.9108C34.5357 24.875 34.5416 24.8512 34.5535 24.8393C34.5535 24.8155 34.5655 24.7917 34.5893 24.7679C34.6012 24.756 34.6071 24.75 34.6071 24.75C34.6309 24.75 34.6428 24.7441 34.6428 24.7322C34.6666 24.7203 34.6905 24.7143 34.7143 24.7143C34.75 24.7143 34.7738 24.7203 34.7857 24.7322C34.8333 24.756 34.8571 24.7679 34.8571 24.7679L34.8928 24.8393V24.8572C34.9047 24.881 34.9107 24.8989 34.9107 24.9108L34.8928 24.9286C34.8928 24.9524 34.8928 24.9703 34.8928 24.9822C34.8928 24.9941 34.8869 25 34.875 25L34.8571 25.0358C34.8333 25.0596 34.8095 25.0715 34.7857 25.0715C34.7738 25.0834 34.75 25.0893 34.7143 25.0893ZM10.6964 25.0179H11.2321V23.5C11.2321 23.2143 11.1428 22.9881 10.9643 22.8215C10.7976 22.6429 10.5655 22.5477 10.2678 22.5358C9.88692 22.5358 9.60712 22.6786 9.42857 22.9643C9.2619 22.6786 8.99405 22.5358 8.625 22.5358C8.33928 22.5358 8.10714 22.6548 7.92857 22.8929V22.6072H7.39286V25.0179H7.92857V23.6786C7.92857 23.25 8.125 23.0358 8.51785 23.0358C8.875 23.0358 9.05357 23.25 9.05357 23.6786V25.0179H9.57143V23.6786C9.57143 23.25 9.76782 23.0358 10.1607 23.0358C10.5178 23.0358 10.6964 23.25 10.6964 23.6786V25.0179ZM13.6607 25.0179H14.1785V23.8036V22.6072H13.6607V22.8929C13.4583 22.6548 13.2024 22.5358 12.8928 22.5358C12.5476 22.5358 12.2619 22.6548 12.0357 22.8929C11.8095 23.131 11.6964 23.4346 11.6964 23.8036C11.6964 24.1727 11.8095 24.4762 12.0357 24.7143C12.2619 24.9524 12.5476 25.0715 12.8928 25.0715C13.2262 25.0715 13.4821 24.9524 13.6607 24.7143V25.0179ZM16.8393 24.2858C16.8393 23.881 16.5595 23.6429 16 23.5715L15.75 23.5358C15.4762 23.4881 15.3393 23.4048 15.3393 23.2858C15.3393 23.1072 15.4881 23.0179 15.7857 23.0179C16.0595 23.0179 16.3155 23.0834 16.5535 23.2143L16.7678 22.7858C16.5059 22.6191 16.1785 22.5358 15.7857 22.5358C15.4762 22.5358 15.2321 22.6072 15.0535 22.75C14.875 22.8929 14.7857 23.0834 14.7857 23.3215C14.7857 23.7143 15.0655 23.9465 15.625 24.0179L15.8571 24.0536C16.1428 24.1012 16.2857 24.1846 16.2857 24.3036C16.2857 24.506 16.1012 24.6072 15.7321 24.6072C15.4345 24.6072 15.1666 24.5239 14.9285 24.3572L14.6964 24.7679C14.994 24.9703 15.3393 25.0715 15.7321 25.0715C16.0774 25.0715 16.3452 25 16.5357 24.8572C16.7381 24.7143 16.8393 24.5239 16.8393 24.2858ZM19.1607 24.8929L19.0178 24.4465C18.8631 24.5298 18.7083 24.5715 18.5535 24.5715C18.3274 24.5715 18.2143 24.4405 18.2143 24.1786V23.0893H19.0714V22.6072H18.2143V21.875H17.6785V22.6072H17.1785V23.0893H17.6785V24.1786C17.6785 24.7739 17.9583 25.0715 18.5178 25.0715C18.7678 25.0715 18.9821 25.0119 19.1607 24.8929ZM20.6964 22.5358C20.3512 22.5358 20.0655 22.6548 19.8393 22.8929C19.6131 23.131 19.5 23.4346 19.5 23.8036C19.5 24.1846 19.6131 24.4941 19.8393 24.7322C20.0774 24.9584 20.375 25.0715 20.7321 25.0715C21.125 25.0715 21.4524 24.9584 21.7143 24.7322L21.4643 24.3393C21.25 24.5179 21.0178 24.6072 20.7678 24.6072C20.3631 24.6072 20.119 24.4108 20.0357 24.0179H21.8393V23.8036C21.8393 23.4227 21.7321 23.1191 21.5178 22.8929C21.3035 22.6548 21.0297 22.5358 20.6964 22.5358ZM23.5357 22.5358C23.2619 22.5358 23.0535 22.6548 22.9107 22.8929V22.6072H22.375V25.0179H22.9107V23.6608C22.9107 23.2441 23.0833 23.0358 23.4285 23.0358C23.5476 23.0358 23.6547 23.0596 23.75 23.1072L23.9107 22.6072C23.8035 22.5596 23.6785 22.5358 23.5357 22.5358ZM24.4107 22.8929C24.1845 23.131 24.0714 23.4346 24.0714 23.8036C24.0714 24.1727 24.1845 24.4762 24.4107 24.7143C24.6488 24.9524 24.9643 25.0715 25.3571 25.0715C25.7024 25.0715 25.9881 24.9762 26.2143 24.7858L25.9643 24.3572C25.75 24.5119 25.5416 24.5834 25.3393 24.5715C25.125 24.5715 24.9464 24.5 24.8035 24.3572C24.6726 24.2143 24.6071 24.0298 24.6071 23.8036C24.6071 23.5774 24.6726 23.3929 24.8035 23.25C24.9464 23.1072 25.125 23.0358 25.3393 23.0358C25.5655 23.0358 25.7738 23.1072 25.9643 23.25L26.2143 22.8215C25.9762 22.631 25.6905 22.5358 25.3571 22.5358C24.9643 22.5358 24.6488 22.6548 24.4107 22.8929ZM28.4464 25.0179H28.9821V23.8036V22.6072H28.4464V22.8929C28.2678 22.6548 28.0178 22.5358 27.6964 22.5358C27.3512 22.5358 27.0595 22.6548 26.8214 22.8929C26.5952 23.131 26.4821 23.4346 26.4821 23.8036C26.4821 24.1727 26.5952 24.4762 26.8214 24.7143C27.0595 24.9524 27.3512 25.0715 27.6964 25.0715C28.0297 25.0715 28.2797 24.9524 28.4464 24.7143V25.0179ZM30.8214 22.5358C30.5476 22.5358 30.3393 22.6548 30.1964 22.8929V22.6072H29.6785V25.0179H30.1964V23.6608C30.1964 23.2441 30.369 23.0358 30.7143 23.0358C30.8333 23.0358 30.9405 23.0596 31.0357 23.1072L31.1964 22.6072C31.1012 22.5596 30.9762 22.5358 30.8214 22.5358ZM33.3214 25.0179H33.8393V23.8036V21.625H33.3214V22.8929C33.1428 22.6548 32.8869 22.5358 32.5535 22.5358C32.2202 22.5358 31.9345 22.6608 31.6964 22.9108C31.4702 23.1489 31.3571 23.4465 31.3571 23.8036C31.3571 24.1608 31.4702 24.4643 31.6964 24.7143C31.9345 24.9524 32.2202 25.0715 32.5535 25.0715C32.8988 25.0715 33.1547 24.9524 33.3214 24.7143V25.0179ZM34.7143 24.6608L34.6785 24.6786C34.6547 24.6786 34.6369 24.6786 34.625 24.6786C34.6012 24.6905 34.5774 24.7084 34.5535 24.7322C34.5178 24.7441 34.5 24.7679 34.5 24.8036C34.4881 24.8274 34.4821 24.8631 34.4821 24.9108C34.4821 24.9465 34.4881 24.9762 34.5 25C34.5 25.0239 34.5178 25.0477 34.5535 25.0715C34.5774 25.0953 34.6012 25.1131 34.625 25.125C34.6488 25.1369 34.6785 25.1429 34.7143 25.1429C34.7619 25.1429 34.7976 25.1369 34.8214 25.125C34.8214 25.1131 34.8333 25.1012 34.8571 25.0893L34.8928 25.0715C34.9047 25.0596 34.9226 25.0358 34.9464 25C34.9583 24.9762 34.9643 24.9465 34.9643 24.9108C34.9643 24.8631 34.9583 24.8274 34.9464 24.8036C34.9345 24.7917 34.9166 24.7679 34.8928 24.7322C34.8928 24.7203 34.8809 24.7084 34.8571 24.6965L34.8214 24.6786C34.8095 24.6786 34.7916 24.6786 34.7678 24.6786C34.744 24.6667 34.7262 24.6608 34.7143 24.6608ZM41.1428 2.28572V25.1429C41.1428 25.7619 40.9166 26.2977 40.4643 26.75C40.0119 27.2024 39.4762 27.4286 38.8571 27.4286H2.28572C1.66667 27.4286 1.13095 27.2024 0.678575 26.75C0.22619 26.2977 0 25.7619 0 25.1429V2.28572C0 1.66667 0.22619 1.13095 0.678575 0.678569C1.13095 0.226189 1.66667 0 2.28572 0H38.8571C39.4762 0 40.0119 0.226189 40.4643 0.678569C40.9166 1.13095 41.1428 1.66667 41.1428 2.28572Z" fill="#7F8794"/>
</svg>
