<svg width="32" height="32" viewBox="0 0 32 32" fill="none" xmlns="http://www.w3.org/2000/svg">
<path d="M16.0033 15.3839C18.2355 15.3839 20.0569 13.5714 20.0569 11.3393C20.0569 9.09821 18.2355 7.28571 16.0033 7.28571C13.7712 7.28571 11.9498 9.09821 11.9498 11.3393C11.9498 13.5714 13.7712 15.3839 16.0033 15.3839ZM16.0033 9.33928C17.1016 9.33928 17.9944 10.2321 17.9944 11.3393C17.9944 12.4375 17.1016 13.3304 16.0033 13.3304C14.9051 13.3304 14.0123 12.4375 14.0123 11.3393C14.0123 10.2321 14.9051 9.33928 16.0033 9.33928ZM20.673 15.875C20.4408 15.4196 19.8069 15.0357 18.9676 15.6964C18.9676 15.6964 17.8337 16.5982 16.0033 16.5982C14.173 16.5982 13.0391 15.6964 13.0391 15.6964C12.1998 15.0357 11.5658 15.4196 11.3337 15.875C10.9408 16.6786 11.3873 17.0625 12.4051 17.7232C13.2712 18.2768 14.4676 18.4821 15.2355 18.5625L14.5926 19.2054C13.6819 20.1071 12.8158 20.9821 12.2087 21.5893C11.8426 21.9554 11.8426 22.5446 12.2087 22.9018L12.3158 23.0179C12.673 23.375 13.2623 23.375 13.6283 23.0179L16.0123 20.625C16.923 21.5357 17.798 22.4107 18.3962 23.0179C18.7623 23.375 19.3516 23.375 19.7176 23.0179L19.8248 22.9018C20.1819 22.5446 20.1819 21.9554 19.8248 21.5893L17.4408 19.2054L16.7891 18.5625C17.5658 18.4821 18.7444 18.2679 19.6016 17.7232C20.6194 17.0625 21.0658 16.6786 20.673 15.875Z" fill="#F27220"/>
</svg>
