<svg width="42" height="28" viewBox="0 0 42 28" fill="none" xmlns="http://www.w3.org/2000/svg">
<path d="M35.2678 15.3929H32.8035C32.9702 14.9524 33.3631 13.8869 33.9821 12.1965L34.0357 12.0358C34.0833 11.9167 34.1428 11.7619 34.2143 11.5715C34.2857 11.381 34.3393 11.2262 34.375 11.1072L34.5893 12.0893L35.2678 15.3929ZM9.48215 14.2322L8.44643 8.96429C8.31548 8.32143 7.86904 8 7.10714 8H2.32142L2.28572 8.23214C5.9881 9.17266 8.38691 11.1727 9.48215 14.2322ZM12.6785 8L9.78572 15.8215L9.48215 14.2322C9.17262 13.3989 8.66667 12.631 7.96428 11.9286C7.2619 11.2143 6.48214 10.6846 5.625 10.3393L8.03572 19.4465H11.1607L15.8214 8H12.6785ZM15.1607 19.4643H18.125L19.9821 8H17.0178L15.1607 19.4643ZM28.875 8.28572C28.0535 7.96429 27.1666 7.80357 26.2143 7.80357C24.75 7.80357 23.5535 8.15476 22.625 8.85714C21.6964 9.55956 21.2262 10.4703 21.2143 11.5893C21.2024 12.8036 22.0655 13.8393 23.8035 14.6965C24.375 14.9703 24.7738 15.2143 25 15.4286C25.2262 15.6429 25.3393 15.875 25.3393 16.125C25.3393 16.4822 25.1607 16.756 24.8035 16.9465C24.4464 17.1369 24.0357 17.2322 23.5714 17.2322C22.5476 17.2322 21.619 17.0358 20.7857 16.6429L20.3928 16.4465L19.9821 19.0179C20.8631 19.4227 21.9643 19.625 23.2857 19.625C24.8333 19.6369 26.0714 19.2858 27 18.5715C27.9405 17.8572 28.4226 16.9048 28.4464 15.7143C28.4464 14.4524 27.6131 13.4167 25.9464 12.6072C25.3631 12.3096 24.9405 12.0596 24.6785 11.8572C24.4166 11.6548 24.2857 11.4286 24.2857 11.1786C24.2857 10.9167 24.4285 10.6905 24.7143 10.5C25.0119 10.2977 25.4345 10.1965 25.9821 10.1965C26.8155 10.1846 27.5535 10.3274 28.1964 10.625L28.4643 10.7679L28.875 8.28572ZM36.4643 8H34.1785C33.4047 8 32.8869 8.32143 32.625 8.96429L28.2321 19.4643H31.3393L31.9643 17.75H35.75C35.8095 18.0119 35.9285 18.5834 36.1071 19.4643H38.8571L36.4643 8ZM41.1428 2.28572V25.1429C41.1428 25.7619 40.9166 26.2977 40.4643 26.75C40.0119 27.2024 39.4762 27.4286 38.8571 27.4286H2.28572C1.66667 27.4286 1.13095 27.2024 0.678575 26.75C0.22619 26.2977 0 25.7619 0 25.1429V2.28572C0 1.66667 0.22619 1.13095 0.678575 0.678569C1.13095 0.226189 1.66667 0 2.28572 0H38.8571C39.4762 0 40.0119 0.226189 40.4643 0.678569C40.9166 1.13095 41.1428 1.66667 41.1428 2.28572Z" fill="#7F8794"/>
</svg>
