<svg width="32" height="32" viewBox="0 0 32 32" fill="none" xmlns="http://www.w3.org/2000/svg">
<path d="M24.5458 11.9286C24.5458 11.9286 24.4208 11.5714 23.644 11.6696L21.0725 11.6875C20.8761 11.6607 20.7333 11.7411 20.7333 11.7411C20.7333 11.7411 20.5815 11.8214 20.51 12.0179C20.0904 13.0982 19.5547 14.0268 19.5547 14.0268C18.4118 15.9732 17.9475 16.0804 17.76 15.9554C17.3225 15.6786 17.4386 14.8304 17.4386 14.2232C17.4386 12.3304 17.7243 11.5446 16.8761 11.3393C16.5993 11.2768 16.394 11.2321 15.6708 11.2232C14.7511 11.2143 13.9743 11.2232 13.5368 11.4375C13.2422 11.5804 13.019 11.9018 13.1529 11.9196C13.3225 11.9464 13.7065 12.0268 13.9118 12.3036C13.9118 12.3036 14.135 12.6696 14.1708 13.4732C14.269 15.6964 13.8136 15.9732 13.8136 15.9732C13.4654 16.1607 12.8583 15.8482 11.9654 14.0089C11.9654 14.0089 11.4475 13.0982 11.0458 12.0982C10.9743 11.9107 10.8315 11.8125 10.8315 11.8125C10.8315 11.8125 10.6708 11.6875 10.4386 11.6518L7.99219 11.6696C7.61719 11.6696 7.48326 11.8393 7.48326 11.8393C7.48326 11.8393 7.34933 11.9821 7.47433 12.2768C9.38504 16.7679 11.5636 19.0179 11.5636 19.0179C11.5636 19.0179 13.5547 21.0982 15.8136 20.9554H16.8404C17.1529 20.9286 17.3136 20.7589 17.3136 20.7589C17.3136 20.7589 17.4565 20.5982 17.4475 20.3036C17.4297 18.9286 18.0725 18.7232 18.0725 18.7232C18.6975 18.5268 19.5011 20.0536 20.3583 20.6429C20.3583 20.6429 21.01 21.0893 21.5011 20.9911L23.7868 20.9554C24.9922 20.9464 24.4208 19.9464 24.4208 19.9464C24.3761 19.8661 24.0904 19.25 22.7154 17.9732C21.2868 16.6429 21.4743 16.8571 23.2065 14.5536C24.26 13.1518 24.6797 12.2946 24.5458 11.9286Z" fill="#43668A"/>
</svg>
