<svg width="14" height="14" viewBox="0 0 14 14" fill="none" xmlns="http://www.w3.org/2000/svg">
<path d="M13.1875 6.125H8.125V1.0625C8.125 0.78125 7.84375 0.5 7.5625 0.5H6.4375C6.12109 0.5 5.875 0.78125 5.875 1.0625V6.125H0.8125C0.496094 6.125 0.25 6.40625 0.25 6.6875V7.8125C0.25 8.12891 0.496094 8.375 0.8125 8.375H5.875V13.4375C5.875 13.7539 6.12109 14 6.4375 14H7.5625C7.84375 14 8.125 13.7539 8.125 13.4375V8.375H13.1875C13.4688 8.375 13.75 8.12891 13.75 7.8125V6.6875C13.75 6.40625 13.4688 6.125 13.1875 6.125Z" fill="#242D33"/>
</svg>
